<svg xmlns="http://www.w3.org/2000/svg" viewBox="0 0 58.67 51.65"><title>baby</title><g id="Layer_2" data-name="Layer 2"><g id="Index_items" data-name="Index items"><path d="M29.34,54C18.41,54,8.83,46.92,6.27,37a6.33,6.33,0,0,1,.12-12.66h.55a22.72,22.72,0,0,1,8.34-10.59.91.91,0,0,1,1.24.22.87.87,0,0,1-.23,1.22A20.9,20.9,0,0,0,8.4,25.51a.88.88,0,0,1-.84.6H6.39a4.57,4.57,0,1,0,0,9.14H7a.88.88,0,0,1,.87.69C10,45.4,19,52.27,29.34,52.27s19.4-6.87,21.51-16.33a.88.88,0,0,1,.87-.69h.58a4.57,4.57,0,1,0,0-9.14H51.11a.89.89,0,0,1-.84-.6,20.51,20.51,0,0,0-7.83-10.25A.89.89,0,0,1,42.22,14a.91.91,0,0,1,1.24-.22,22.41,22.41,0,0,1,8.28,10.54h.55A6.34,6.34,0,0,1,52.41,37c-2.56,9.9-12.15,17-23.08,17Zm0,0" transform="translate(0 -2.39)"/><path d="M38.94,34.08A2.15,2.15,0,1,1,36.79,32a2.14,2.14,0,0,1,2.15,2.13Zm0,0" transform="translate(0 -2.39)"/><path d="M24.86,34.08A2.15,2.15,0,1,1,22.71,32a2.14,2.14,0,0,1,2.14,2.13Zm0,0" transform="translate(0 -2.39)"/><path d="M29.34,45.61A12.11,12.11,0,0,1,23,43.83l-.34-.22a.87.87,0,0,1-.3-1.21.89.89,0,0,1,1.22-.29l.36.21a10.23,10.23,0,0,0,10.7,0l.35-.21a.89.89,0,0,1,1.22.29A.88.88,0,0,1,36,43.62l-.35.21a12,12,0,0,1-6.29,1.78Zm0,0" transform="translate(0 -2.39)"/><path d="M29.34,14.49a4.19,4.19,0,1,1,4.23-4.19,4.21,4.21,0,0,1-4.23,4.19Zm0-6.61a2.42,2.42,0,1,0,2.45,2.43,2.44,2.44,0,0,0-2.45-2.43Zm0,0" transform="translate(0 -2.39)"/><path d="M39.52,18.23A4.25,4.25,0,0,1,38,17.94l-9-3.5a.88.88,0,0,1-.5-1.14.89.89,0,0,1,1.16-.49l9,3.5A2.44,2.44,0,0,0,42,14V6.57a2.38,2.38,0,0,0-1.07-2,2.43,2.43,0,0,0-2.27-.25l-9,3.5a.89.89,0,0,1-1.16-.49A.88.88,0,0,1,29,6.19l9-3.5a4.24,4.24,0,0,1,3.92.43,4.16,4.16,0,0,1,1.85,3.46V14a4.21,4.21,0,0,1-4.22,4.19Zm0,0" transform="translate(0 -2.39)"/><path d="M19.16,18.23A4.21,4.21,0,0,1,14.93,14V6.57a4.18,4.18,0,0,1,1.85-3.46,4.24,4.24,0,0,1,3.92-.43l9,3.5A.88.88,0,0,1,29,7.82l-9-3.5a2.46,2.46,0,0,0-2.27.25,2.38,2.38,0,0,0-1.07,2V14a2.41,2.41,0,0,0,1.07,2,2.45,2.45,0,0,0,2.27.25l9-3.5a.88.88,0,1,1,.65,1.64l-9,3.5a4.16,4.16,0,0,1-1.54.29Zm0,0" transform="translate(0 -2.39)"/></g></g></svg>