<svg xmlns="http://www.w3.org/2000/svg" xmlns:xlink="http://www.w3.org/1999/xlink" viewBox="0 0 49.87 52.19"><defs><style>.cls-1{fill:none;}.cls-2{clip-path:url(#clip-path);}</style><clipPath id="clip-path" transform="translate(-0.16 -0.04)"><rect class="cls-1" y="0.02" width="50.06" height="52.37"/></clipPath></defs><title>beauty</title><g id="Layer_2" data-name="Layer 2"><g id="Index_items" data-name="Index items"><g class="cls-2"><path d="M14.15,24.13h-.57V19.49a1,1,0,0,0-1-1H12.5V9a1,1,0,0,0-.55-.89L4.25,4.27a1,1,0,0,0-1.44.89V18.5H2.72a1,1,0,0,0-1,1v4.64H1.16a1,1,0,0,0-1,1V51.24a1,1,0,0,0,1,1h13a1,1,0,0,0,1-1V25.12a1,1,0,0,0-1-1ZM4.8,6.77l5.71,2.86V18.5H4.8ZM3.72,20.49h7.87v3.64H3.72Zm9.44,29.76h-11V26.12h11Zm0,0" transform="translate(-0.16 -0.04)"/><path d="M49,40.4H16.73a1,1,0,1,0,0,2H47.46l-.23.47a7.59,7.59,0,0,1-6.8,4.27H16.73a1,1,0,0,0,0,2h23.7A9.59,9.59,0,0,0,49,43.73l.91-1.9A1,1,0,0,0,49,40.4Zm0,0" transform="translate(-0.16 -0.04)"/></g><path d="M14.43,7.36A20,20,0,1,1,40.85,37.42,1,1,0,0,0,42.13,39a22,22,0,1,0-29-33.05,1,1,0,0,0,1.35,1.46Zm0,0" transform="translate(-0.16 -0.04)"/><path d="M28,6.17A15.88,15.88,0,1,1,17.39,33.85a1,1,0,0,0-1.33,1.48,17.87,17.87,0,1,0-2.44-23.86,1,1,0,1,0,1.6,1.18A16,16,0,0,1,28,6.17Zm0,0" transform="translate(-0.16 -0.04)"/><path d="M39,14.21,20.82,32.37a1,1,0,0,0,1.41,1.41L40.38,15.62A1,1,0,1,0,39,14.21Zm0,0" transform="translate(-0.16 -0.04)"/><path d="M26.35,32.49a1,1,0,1,0,1.41,1.41L41.38,20.27A1,1,0,1,0,40,18.86Zm0,0" transform="translate(-0.16 -0.04)"/></g></g></svg>