<svg xmlns="http://www.w3.org/2000/svg" xmlns:xlink="http://www.w3.org/1999/xlink" viewBox="0 0 56.72 56.72"><defs><style>.cls-1{fill:none;}.cls-2{clip-path:url(#clip-path);}</style><clipPath id="clip-path" transform="translate(0 -0.05)"><rect class="cls-1" y="0.01" width="56.77" height="56.9"/></clipPath></defs><title>books</title><g id="Layer_2" data-name="Layer 2"><g id="Index_items" data-name="Index items"><path d="M32.24,27a1,1,0,0,0,.84.52.94.94,0,0,0,.43-.1,81.08,81.08,0,0,1,8.36-3.72.95.95,0,0,0-.57-1.8,81.11,81.11,0,0,0-8.65,3.84A1,1,0,0,0,32.24,27Zm0,0" transform="translate(0 -0.05)"/><g class="cls-2"><path d="M33.09,16.13a1,1,0,0,0,.43-.1,81.08,81.08,0,0,1,8.36-3.72.95.95,0,0,0-.57-1.8,81.11,81.11,0,0,0-8.65,3.84.95.95,0,0,0,.43,1.79Zm0,0" transform="translate(0 -0.05)"/><path d="M55.78,14.24a1,1,0,0,0-.94.95V52A2.84,2.84,0,0,1,52,54.89H29.31V52.71a27.86,27.86,0,0,1,8.51-1.61A48.76,48.76,0,0,1,51.7,52.95a.95.95,0,0,0,1.24-.9V10.45a.94.94,0,0,0-.74-.92s-.74-.17-2-.4A.95.95,0,0,0,49.85,11l1.2.23V50.79a53.36,53.36,0,0,0-13.24-1.58A29.7,29.7,0,0,0,28.4,51a22.14,22.14,0,0,0-8.55-1.81A63.72,63.72,0,0,0,5.67,50.83V11.19A62.23,62.23,0,0,1,19.85,9.51a20.5,20.5,0,0,1,7.56,1.56v37.2a.95.95,0,0,0,1.43.81c.09-.06,9.46-5.65,17.77-8.42a1,1,0,0,0,.65-.9V1A.95.95,0,0,0,46,.11,100.55,100.55,0,0,0,30.7,7.76a.95.95,0,0,0,1,1.6,100.93,100.93,0,0,1,13.68-7v36.7a106,106,0,0,0-16.07,7.54V10.45a1,1,0,0,0-.52-.85,21.89,21.89,0,0,0-8.93-2A61.38,61.38,0,0,0,4.47,9.55a.94.94,0,0,0-.69.91V52A.94.94,0,0,0,5,53,60.74,60.74,0,0,1,19.85,51.1a20.45,20.45,0,0,1,7.56,1.56v2.22H4.73A2.84,2.84,0,0,1,1.89,52V15.18a.95.95,0,0,0-1.89,0V52a4.73,4.73,0,0,0,4.73,4.73H52A4.73,4.73,0,0,0,56.72,52V15.18a1,1,0,0,0-.95-.95Zm0,0" transform="translate(0 -0.05)"/></g><path d="M32.24,21.28a.95.95,0,0,0,1.27.41A81,81,0,0,1,41.88,18a.95.95,0,0,0-.57-1.8A81.11,81.11,0,0,0,32.66,20a1,1,0,0,0-.41,1.27Zm0,0" transform="translate(0 -0.05)"/><path d="M32.24,32.63a.95.95,0,0,0,1.27.41,81.08,81.08,0,0,1,8.36-3.72.95.95,0,0,0-.57-1.8,81.08,81.08,0,0,0-8.65,3.84,1,1,0,0,0-.41,1.27Zm0,0" transform="translate(0 -0.05)"/><path d="M22.9,17.6c-5.84-1.37-12.47.38-12.75.45a.95.95,0,0,0,.24,1.86,1,1,0,0,0,.25,0c.06,0,6.45-1.7,11.83-.44a.95.95,0,1,0,.43-1.84Zm0,0" transform="translate(0 -0.05)"/><path d="M22.9,23.27c-5.84-1.37-12.47.38-12.75.45a.95.95,0,0,0,.24,1.86,1,1,0,0,0,.25,0c.06,0,6.45-1.7,11.83-.44a.95.95,0,1,0,.43-1.84Zm0,0" transform="translate(0 -0.05)"/><path d="M32.24,38.3a.95.95,0,0,0,1.27.41A81,81,0,0,1,41.88,35a.95.95,0,0,0-.57-1.8A81.08,81.08,0,0,0,32.66,37a1,1,0,0,0-.41,1.27Zm0,0" transform="translate(0 -0.05)"/><path d="M22.9,28.94c-5.84-1.37-12.47.37-12.75.45a.95.95,0,0,0,.24,1.86,1,1,0,0,0,.25,0c.06,0,6.45-1.7,11.83-.44a.95.95,0,1,0,.43-1.84Zm0,0" transform="translate(0 -0.05)"/><path d="M22.9,40.29c-5.84-1.37-12.47.38-12.75.45a.95.95,0,0,0,.24,1.86,1,1,0,0,0,.25,0c.06,0,6.45-1.7,11.83-.44a.95.95,0,1,0,.43-1.84Zm0,0" transform="translate(0 -0.05)"/><path d="M22.9,34.62c-5.84-1.37-12.47.37-12.75.45a.95.95,0,0,0,.24,1.86,1,1,0,0,0,.25,0c.06,0,6.45-1.7,11.83-.44a.95.95,0,1,0,.43-1.84Zm0,0" transform="translate(0 -0.05)"/></g></g></svg>