<svg xmlns="http://www.w3.org/2000/svg" viewBox="0 0 56.78 52.05"><title>cart</title><g id="Layer_2" data-name="Layer 2"><g id="Header"><path d="M56.54,7.64a1.23,1.23,0,0,0-.95-.47h-45L9.46,1c0-.47-.71-.95-1.18-.95H1.18A1.12,1.12,0,0,0,0,1.25,1.12,1.12,0,0,0,1.18,2.43H7.33L13,31.29a8.34,8.34,0,0,0,8,6.62H48.26a1.18,1.18,0,1,0,0-2.37h-27a5.46,5.46,0,0,1-4.73-2.6L51.1,28.22a1,1,0,0,0,.95-.95L56.78,8.35a1.17,1.17,0,0,0-.24-.71ZM49.92,26.09,15.38,30.58,11.12,9.29H53.94Zm0,0" transform="translate(0 -0.06)"/><path d="M20.11,40.28A5.91,5.91,0,1,0,26,46.2a5.86,5.86,0,0,0-5.91-5.91Zm0,9.46a3.55,3.55,0,1,1,3.55-3.55,3.64,3.64,0,0,1-3.55,3.55Zm0,0" transform="translate(0 -0.06)"/><path d="M43.77,40.28a5.91,5.91,0,1,0,5.91,5.91,5.86,5.86,0,0,0-5.91-5.91Zm0,9.46a3.55,3.55,0,1,1,3.55-3.55,3.64,3.64,0,0,1-3.55,3.55Zm0,0" transform="translate(0 -0.06)"/></g></g></svg>