<svg xmlns="http://www.w3.org/2000/svg" viewBox="0 0 32.8 30.07"><defs><style>.cls-1{fill:#ff1d25;}</style></defs><title>cart-footer</title><g id="Layer_2" data-name="Layer 2"><g id="Footer"><path class="cls-1" d="M32.67,4.37a.71.71,0,0,0-.55-.27h-26L5.47.55C5.47.27,5.06,0,4.78,0H.68A.65.65,0,0,0,0,.68a.65.65,0,0,0,.68.68H4.24L7.52,18a4.82,4.82,0,0,0,4.65,3.83H27.88a.68.68,0,1,0,0-1.37H12.3A3.15,3.15,0,0,1,9.57,19l20-2.73a.59.59,0,0,0,.55-.55L32.8,4.78a.68.68,0,0,0-.14-.41ZM28.84,15l-20,2.6L6.42,5.33H31.16Zm0,0"/><path class="cls-1" d="M11.62,23.24A3.42,3.42,0,1,0,15,26.65a3.38,3.38,0,0,0-3.42-3.42Zm0,5.47a2.05,2.05,0,1,1,2.05-2.05,2.1,2.1,0,0,1-2.05,2.05Zm0,0"/><path class="cls-1" d="M25.29,23.24a3.42,3.42,0,1,0,3.42,3.42,3.38,3.38,0,0,0-3.42-3.42Zm0,5.47a2.05,2.05,0,1,1,2.05-2.05,2.1,2.1,0,0,1-2.05,2.05Zm0,0"/></g></g></svg>