<svg xmlns="http://www.w3.org/2000/svg" viewBox="0 0 22.03 22.03"><defs><style>.cls-1{fill:#ff4040;}</style></defs><title>contact</title><g id="Layer_2" data-name="Layer 2"><g id="Header"><path class="cls-1" d="M3.51,0C2.56,0,1.7.9.94,1.7L.5,2.16C-.23,2.89-.15,4.8.69,7a25.24,25.24,0,0,0,5.82,8.49A25.28,25.28,0,0,0,15,21.35c2.23.84,4.15.92,4.87.19l.46-.44c.82-.78,1.74-1.66,1.7-2.63a3.21,3.21,0,0,0-1.45-2.14c-2.8-2.25-3.58-1.46-4.87-.14l-.26.26c-.62.62-1.62.48-3-.4a23.14,23.14,0,0,1-3.48-3C5.62,9.69,4.54,7.63,5.6,6.58l.26-.25C7.17,5,8,4.25,5.72,1.45A3.22,3.22,0,0,0,3.57,0Z"/></g></g></svg>