<svg xmlns="http://www.w3.org/2000/svg" viewBox="0 0 34.63 24.62"><defs><style>.cls-1{fill:#ff1d25;}</style></defs><title>email</title><g id="Layer_2" data-name="Layer 2"><g id="Footer"><path class="cls-1" d="M28,19a.55.55,0,0,1-.38-.15l-6.42-6a.57.57,0,0,1,0-.79A.56.56,0,0,1,22,12l6.43,6A.56.56,0,0,1,28,19Zm0,0"/><path class="cls-1" d="M6.59,19a.56.56,0,0,1-.39-1l6.43-6a.56.56,0,0,1,.77.81L7,18.86a.55.55,0,0,1-.38.15Zm0,0"/><path class="cls-1" d="M31.84,24.62h-29A2.79,2.79,0,0,1,0,21.83v-19A2.8,2.8,0,0,1,2.79,0h29a2.8,2.8,0,0,1,2.79,2.79v19a2.79,2.79,0,0,1-2.79,2.79Zm-29-23.5A1.68,1.68,0,0,0,1.12,2.79v19A1.67,1.67,0,0,0,2.79,23.5h29a1.67,1.67,0,0,0,1.67-1.67v-19a1.67,1.67,0,0,0-1.67-1.67Zm0,0"/><path class="cls-1" d="M17.32,15.12a3.11,3.11,0,0,1-2-.74L.93,1.87A.56.56,0,1,1,1.66,1L16,13.53a2.09,2.09,0,0,0,2.63,0L32.95,1a.56.56,0,0,1,.79.05.56.56,0,0,1-.05.79L19.37,14.37a3.11,3.11,0,0,1-2.05.74Zm0,0"/></g></g></svg>