<svg xmlns="http://www.w3.org/2000/svg" xmlns:xlink="http://www.w3.org/1999/xlink" viewBox="0 0 43.66 50.8"><defs><style>.cls-1{fill:none;}.cls-2{clip-path:url(#clip-path);}.cls-3{fill:#ff4040;}</style><clipPath id="clip-path" transform="translate(-0.1 -0.04)"><rect class="cls-1" width="43.77" height="50.96"/></clipPath></defs><title>faq</title><g id="Layer_2" data-name="Layer 2"><g id="Footer"><g class="cls-2"><path class="cls-3" d="M21.93,0A21.61,21.61,0,0,0,.1,21.46a21.26,21.26,0,0,0,8.82,17.2v10.2a2,2,0,0,0,3.33,1.46l8.15-7.5c.51,0,1,.05,1.53.05A21.61,21.61,0,0,0,43.76,21.46,21.61,21.61,0,0,0,21.93,0Zm0,38.86a18.61,18.61,0,0,1-2-.11,2,2,0,0,0-1.56.51l-5.47,5V37.62A2,2,0,0,0,12,36a17.33,17.33,0,0,1-7.92-14.5A17.68,17.68,0,0,1,21.93,4,17.68,17.68,0,0,1,39.79,21.46,17.68,17.68,0,0,1,21.93,38.9Zm0,0" transform="translate(-0.1 -0.04)"/></g><path class="cls-3" d="M22.92,9.85H16a2,2,0,1,0,0,4h6.95a3,3,0,1,1,0,6h-2a2,2,0,0,0-2,2v2.86a2,2,0,1,0,4,0v-.87a6.95,6.95,0,1,0,0-13.89Zm0,0" transform="translate(-0.1 -0.04)"/><path class="cls-3" d="M23.61,31.71A2.68,2.68,0,1,1,20.94,29a2.68,2.68,0,0,1,2.68,2.68Zm0,0" transform="translate(-0.1 -0.04)"/></g></g></svg>