<svg xmlns="http://www.w3.org/2000/svg" xmlns:xlink="http://www.w3.org/1999/xlink" viewBox="0 0 34.24 31.88"><defs><style>.cls-1{fill:none;}.cls-2{clip-path:url(#clip-path);}.cls-3{fill:#ff4040;}</style><clipPath id="clip-path" transform="translate(0 -0.09)"><rect class="cls-1" width="34.3" height="32"/></clipPath></defs><title>links</title><g id="Layer_2" data-name="Layer 2"><g id="Footer"><g class="cls-2"><path class="cls-3" d="M18.1,13.76a1,1,0,0,0,0,1.35,4,4,0,0,1,0,5.63L9.94,28.9a4,4,0,0,1-5.63,0L3.08,27.67a4,4,0,0,1,0-5.63l8.16-8.16a1,1,0,0,0-1.35-1.35L1.73,20.69a5.89,5.89,0,0,0,0,8.34L3,30.25a5.91,5.91,0,0,0,8.34,0l8.16-8.16a5.91,5.91,0,0,0,0-8.34,1,1,0,0,0-1.35,0Zm0,0" transform="translate(0 -0.09)"/><path class="cls-3" d="M32.51,3,31.29,1.82a5.91,5.91,0,0,0-8.34,0L14.79,10a5.91,5.91,0,0,0,0,8.34A1,1,0,1,0,16.15,17a4,4,0,0,1,0-5.63L24.3,3.17a4,4,0,0,1,5.63,0L31.16,4.4a4,4,0,0,1,0,5.63L23,18.18a1,1,0,0,0,.67,1.64.93.93,0,0,0,.67-.28l8.16-8.16a5.9,5.9,0,0,0,0-8.34Zm0,0" transform="translate(0 -0.09)"/></g></g></g></svg>