<svg xmlns="http://www.w3.org/2000/svg" xmlns:xlink="http://www.w3.org/1999/xlink" viewBox="0 0 53 53"><defs><style>.cls-1{fill:none;}.cls-2{clip-path:url(#clip-path);}</style><clipPath id="clip-path" transform="translate(0 0)"><rect class="cls-1" width="53" height="53"/></clipPath></defs><title>phones</title><g id="Layer_2" data-name="Layer 2"><g id="Index_items" data-name="Index items"><path d="M37.62,0H15.38a3.9,3.9,0,0,0-3.9,3.89V49.11A3.9,3.9,0,0,0,15.38,53H37.62a3.9,3.9,0,0,0,3.9-3.89V3.89A3.9,3.9,0,0,0,37.62,0ZM13.25,7.06h26.5V40.63H13.25Zm2.13-5.3H37.62a2.13,2.13,0,0,1,2.13,2.12V5.3H13.25V3.89a2.13,2.13,0,0,1,2.13-2.12ZM37.62,51.23H15.38a2.13,2.13,0,0,1-2.13-2.12V42.4h26.5v6.71a2.13,2.13,0,0,1-2.13,2.12Zm0,0" transform="translate(0 0)"/><path d="M26.5,43.28A3.53,3.53,0,1,0,30,46.81a3.54,3.54,0,0,0-3.53-3.53Zm0,5.3a1.77,1.77,0,1,1,1.77-1.77,1.77,1.77,0,0,1-1.77,1.77Zm0,0" transform="translate(0 0)"/><path d="M23,4.42H26.5a.88.88,0,1,0,0-1.77H23a.88.88,0,0,0,0,1.77Zm0,0" transform="translate(0 0)"/><g class="cls-2"><path d="M29.15,4.42H30a.88.88,0,1,0,0-1.77h-.88a.88.88,0,0,0,0,1.77Zm0,0" transform="translate(0 0)"/><path d="M50,4a.88.88,0,0,0-1.25,1.25,8.48,8.48,0,0,1,0,12A.88.88,0,1,0,50,18.5,10.24,10.24,0,0,0,50,4Zm0,0" transform="translate(0 0)"/><path d="M46.29,6A.88.88,0,0,0,45,7.29a5.8,5.8,0,0,1,0,8.2.88.88,0,1,0,1.25,1.25A7.56,7.56,0,0,0,46.29,6Zm0,0" transform="translate(0 0)"/><path d="M4.24,5.28A.88.88,0,0,0,3,4,10.24,10.24,0,0,0,3,18.5a.88.88,0,0,0,1.25-1.25,8.48,8.48,0,0,1,0-12Zm0,0" transform="translate(0 0)"/></g><path d="M8,5.8a.88.88,0,0,0-1.25,0,7.57,7.57,0,0,0,0,10.69A.88.88,0,0,0,8,15.25a5.8,5.8,0,0,1,0-8.2A.89.89,0,0,0,8,5.8Zm0,0" transform="translate(0 0)"/></g></g></svg>