<svg xmlns="http://www.w3.org/2000/svg" viewBox="0 0 44 44"><title>sign-in</title><g id="Layer_2" data-name="Layer 2"><g id="Header"><path d="M44,22A22,22,0,1,0,7.14,38.21l0,0,.71.6.15.11c.38.31.77.61,1.17.9l.39.28c.43.29.87.57,1.32.84l.29.17c.49.28,1,.54,1.5.78l.11.05a22.15,22.15,0,0,0,5.32,1.68l.15,0q.87.15,1.76.23l.21,0c.59,0,1.19.08,1.79.08s1.19,0,1.78-.08l.22,0c.59-.05,1.17-.13,1.74-.23l.15,0A21.68,21.68,0,0,0,31.14,42l.18-.08c.5-.23,1-.48,1.45-.75l.35-.2c.43-.25.86-.52,1.27-.8l.44-.31c.35-.25.7-.51,1-.78l.23-.17.73-.61,0,0A21.93,21.93,0,0,0,44,22ZM1.6,22A20.4,20.4,0,1,1,35.53,37.25a5.79,5.79,0,0,0-.71-.43L28,33.43a1.78,1.78,0,0,1-1-1.59V29.47c.16-.19.32-.41.49-.65a16.23,16.23,0,0,0,2.09-4.1,2.9,2.9,0,0,0,1.67-2.63V19.25a2.93,2.93,0,0,0-.71-1.9V13.62a6.47,6.47,0,0,0-1.51-4.69C27.62,7.25,25.23,6.4,22,6.4s-5.62.86-7.09,2.54a6.47,6.47,0,0,0-1.51,4.69v3.73a2.92,2.92,0,0,0-.71,1.9v2.84a2.91,2.91,0,0,0,1.07,2.26,14.91,14.91,0,0,0,2.48,5.11v2.32a1.79,1.79,0,0,1-.93,1.57L9,36.79a5.58,5.58,0,0,0-.6.38A20.36,20.36,0,0,1,1.6,22ZM34,38.5c-.28.2-.57.4-.86.59l-.4.26c-.38.23-.76.45-1.16.66l-.26.13a20.34,20.34,0,0,1-2.79,1.18l-.1,0c-.5.17-1,.31-1.52.44h0c-.52.13-1,.23-1.57.32h0c-.5.08-1,.14-1.5.18l-.27,0c-.5,0-1,.06-1.5.06s-1,0-1.52-.06l-.26,0c-.51,0-1-.11-1.51-.18h-.07a20.76,20.76,0,0,1-3.11-.78l-.09,0c-.5-.17-1-.36-1.49-.57h0c-.46-.2-.92-.42-1.36-.65L12.4,40c-.41-.22-.81-.45-1.2-.7l-.35-.23c-.36-.23-.72-.48-1.07-.75l-.11-.08.07,0,6.33-3.45a3.39,3.39,0,0,0,1.76-3V28.89l-.18-.22a13.34,13.34,0,0,1-2.4-5l-.07-.32-.27-.18a1.32,1.32,0,0,1-.62-1.11V19.25a1.33,1.33,0,0,1,.45-1L15,18V13.48A4.83,4.83,0,0,1,16.11,10C17.27,8.67,19.25,8,22,8s4.72.66,5.88,2A4.91,4.91,0,0,1,29,13.48V18l.27.24a1.31,1.31,0,0,1,.44,1v2.84a1.34,1.34,0,0,1-.95,1.26l-.4.12-.13.4a14.82,14.82,0,0,1-2,4c-.21.3-.41.56-.59.76l-.2.22v3a3.37,3.37,0,0,0,1.87,3l6.77,3.39.13.07L34,38.5Zm0,0" transform="translate(0 0)"/></g></g></svg>