<?xml version="1.0" encoding="UTF-8"?><!DOCTYPE svg PUBLIC "-//W3C//DTD SVG 1.1//EN" "http://www.w3.org/Graphics/SVG/1.1/DTD/svg11.dtd"><svg xmlns="http://www.w3.org/2000/svg" xmlns:xlink="http://www.w3.org/1999/xlink"><defs><style>.cls-1{fill:#00aeef;fill-rule:evenodd;}</style><style>.cls-1{fill:#00aeef;}</style><style>.cls-1{fill:#00aeef;fill-rule:evenodd;}</style><style>.cls-1{fill:none;stroke:#00aeef;stroke-miterlimit:10;}</style><style>.cls-1{fill:#00aeef;}</style><style>.cls-1{fill:#00aeef;}</style><style>.cls-1{fill:#00aeef;}</style><style>.cls-1{fill:#00aeef;}.cls-2{fill:#fff;}</style><style>.cls-1{fill:none;}.cls-2{clip-path:url(#clip-path);}.cls-3{fill:#010002;}</style><clipPath id="clip-path" transform="translate(0 -0.01)"><rect class="cls-1" y="0.01" width="20.91" height="20.96"/></clipPath><style>.cls-1{fill:#00aeef;}</style><style>.cls-1{fill:none;}.cls-2{fill:#3fa9f5;}</style><style>.cls-1{fill:#00aeef;}</style><style>.cls-1{fill:#00aeef;fill-rule:evenodd;}</style><style>.cls-1{fill:none;}.cls-2{fill:#00aeef;}.cls-3{fill:#3fa9f5;}</style><style>.cls-1{fill:#00aeef;}</style><style>.cls-1{fill:#00aeef;}</style><style>.cls-1{fill:#00aeef;}</style><style>.cls-1{fill:none;}.cls-2{clip-path:url(#clip-path);}.cls-3{fill:#00aeef;}</style><clipPath id="clip-path" transform="translate(0 -0.73)"><rect class="cls-1" width="36.68" height="25.45"/></clipPath><style>.cls-1{fill:#3fa9f5;}</style><style>.cls-1{fill:none;}.cls-2{fill:#3fa9f5;}</style><style>.cls-1{fill:#00aeef;}</style><style>.cls-1{fill:#00aeef;fill-rule:evenodd;}</style><style>.cls-1{fill:none;}.cls-2{fill:#3fa9f5;}</style><style>.cls-1{fill:none;}.cls-2{fill:#3fa9f5;}.cls-3{fill:#fff;}</style><style>.cls-1{fill:none;}.cls-2{fill:#3fa9f5;}</style><style>.cls-1{fill:#00aeef;fill-rule:evenodd;}</style><style>.cls-1{fill:#00aeef;fill-rule:evenodd;}</style><style>.cls-1{stroke:#fff;stroke-miterlimit:10;stroke-width:0.5px;}</style><style>.cls-1{fill:#00aeef;stroke:#fff;stroke-miterlimit:10;stroke-width:0.75px;}</style><style>.cls-1{fill:#00aeef;}</style></defs><symbol id="angular" viewBox="0 0 21.24 22.67"><title>angular</title><g id="Layer_2" data-name="Layer 2"><g id="About_me" data-name="About me"><path class="cls-1" d="M0,3.72,4.68,2.05c1.85-.66,3.69-1.33,5.54-2a1,1,0,0,1,.64,0c3.45,1.21,6.89,2.44,10.39,3.68C21.11,4.87,21,6,20.86,7.15q-.37,3.21-.75,6.42c-.15,1.31-.29,2.63-.47,3.94a.65.65,0,0,1-.3.41q-4.23,2.37-8.48,4.7a.6.6,0,0,1-.5,0q-4.25-2.33-8.48-4.7a.64.64,0,0,1-.3-.42c-.32-2.66-.62-5.33-.93-8C.46,7.7.23,5.9,0,4.1,0,4,0,3.88,0,3.72ZM10.62,2.6,4.09,17.27H6.45c.38-.95.78-1.91,1.15-2.87A.56.56,0,0,1,8.21,14q2.41,0,4.83,0a.56.56,0,0,1,.6.44q.48,1.27,1,2.52c.07.15.25.35.4.36.67,0,1.35,0,2.11,0Z"/><path class="cls-1" d="M8.64,11.95l2-4.75,2,4.75Z"/></g></g></symbol><symbol id="asp" viewBox="0 0 20.77 21.6"><title>asp</title><g id="Layer_2" data-name="Layer 2"><g id="About_me" data-name="About me"><path class="cls-1" d="M19.39,1.81H12.76V0L0,1.7V19.85L12.76,21.6V19.73h6.62a1.39,1.39,0,0,0,1.39-1.39V3.19A1.39,1.39,0,0,0,19.39,1.81ZM4.08,12.68l-.27-1-1,0-.23.93-.75,0L2.85,9l1,0,1.09,3.78Zm2.26.15a2.43,2.43,0,0,1-1.06-.28l.17-.71a2.14,2.14,0,0,0,.94.27c.4,0,.62-.15.62-.41s-.19-.39-.65-.57c-.62-.23-1-.59-1-1.15S5.86,8.8,6.76,8.77a2.36,2.36,0,0,1,1,.17l-.2.74a1.81,1.81,0,0,0-.82-.17c-.38,0-.56.19-.56.39s.21.36.71.55c.7.26,1,.64,1,1.21S7.41,12.88,6.34,12.84Zm5-1.83a2.14,2.14,0,0,1-1.46.43l-.33,0v1.5l-1,0V8.82a8.21,8.21,0,0,1,1.3-.13A2.18,2.18,0,0,1,11.23,9a1.21,1.21,0,0,1,.5,1A1.34,1.34,0,0,1,11.3,11ZM20,18.35a.59.59,0,0,1-.6.6H12.76V2.61h6.62a.59.59,0,0,1,.6.59Z"/></g></g></symbol><symbol id="backups" viewBox="0 0 20.36 22.4"><title>backups</title><g id="Layer_2" data-name="Layer 2"><g id="My_sites_tick_all_the_boxes" data-name="My sites tick all the boxes"><path d="M20.3,3.47C19.83,1.72,16.32,0,10.18,0S.53,1.72.06,3.47a.4.4,0,0,0-.06.2V18.74a.38.38,0,0,0,0,.18c.48,2,4.78,3.48,10.13,3.48s9.64-1.48,10.13-3.47a.39.39,0,0,0,.05-.2V3.66a.4.4,0,0,0-.06-.2Zm-.79,10.37a1.13,1.13,0,0,1,0,.15l-.06.12-.09.15-.09.11-.15.16-.11.1-.21.17-.11.07-.29.19-.09,0-.39.2-.05,0-.48.21h0a15.83,15.83,0,0,1-3.49.88h0l-.83.11h-.14l-.75.07-.36,0-.58,0-1,0-1,0-.58,0-.36,0-.75-.07H7.36l-.83-.11h0A15.84,15.84,0,0,1,3,15.56H3l-.48-.21-.05,0-.38-.2-.09,0-.29-.19L1.6,14.8l-.21-.17-.11-.1-.15-.16L1,14.26,1,14.11.89,14a.93.93,0,0,1,0-.15.85.85,0,0,1,0-.2.78.78,0,0,1,0-.14.43.43,0,0,0,0-.18v-3l0,0,.28.23c1.53,1.16,4.6,2.06,9,2.06s7.49-.89,9-2a3.53,3.53,0,0,0,.34-.28v3a.43.43,0,0,0,0,.18.78.78,0,0,1,0,.14.85.85,0,0,1,0,.2Zm0-8.43v3a.43.43,0,0,0,0,.18.78.78,0,0,1,0,.14.89.89,0,0,1,0,.2,1.2,1.2,0,0,1,0,.15l-.06.12-.09.15-.09.11-.15.16-.11.1-.21.17-.11.07-.29.19-.09,0-.39.2-.05,0-.48.21h0a15.81,15.81,0,0,1-3.49.88h0l-.83.11h-.14l-.75.07-.36,0-.58,0-1,0-1,0-.58,0-.36,0-.75-.07H7.36l-.83-.11h0A15.7,15.7,0,0,1,3,10.67H3l-.48-.21-.05,0-.38-.2-.09,0L1.71,10,1.6,9.91l-.21-.17-.11-.1-.15-.16L1,9.37,1,9.22.89,9.1a1.24,1.24,0,0,1-.08-.34.78.78,0,0,1,0-.14.43.43,0,0,0,0-.18v-3L1,5.55l.09.07c.12.1.25.19.4.28L1.55,6l.38.22.15.08.47.22.08,0,.6.23.18.06L3.93,7,4.13,7l.74.18.11,0,.71.14.25,0,.71.1.19,0,.94.1.24,0,.79,0h.3l1.08,0,1.08,0h.3l.79,0,.24,0,.94-.1.19,0,.71-.1.25,0,.71-.14.11,0L16.24,7,16.43,7,17,6.81l.18-.06.6-.23.08,0,.47-.22.15-.08L18.81,6l.09-.06c.14-.09.28-.19.4-.28l.09-.07.16-.13ZM10.18.82c5.52,0,9.37,1.61,9.37,3.05S15.7,6.92,10.18,6.92.82,5.31.82,3.87,4.66.82,10.18.82Zm9.37,17.8s0,0,0,.06c-.23,1.41-4,2.92-9.35,2.92S1.06,20.08.83,18.67a.45.45,0,0,0,0-.05V15.19l0,0,.28.23c1.53,1.16,4.6,2.06,9,2.06s7.49-.89,9-2a4,4,0,0,0,.34-.28Zm0,0" transform="translate(0 0)"/></g></g></symbol><symbol id="bootstrap" viewBox="0 0 21 21"><title>bootstrap</title><g id="Layer_2" data-name="Layer 2"><g id="About_me" data-name="About me"><path class="cls-1" d="M0,10.48Q0,6.38,0,2.27A2.06,2.06,0,0,1,2.26,0H18.74A2.06,2.06,0,0,1,21,2.23q0,8.27,0,16.54A2.07,2.07,0,0,1,18.78,21H2.24A2.06,2.06,0,0,1,0,18.75Q0,14.62,0,10.48Zm6.2,5.39a1.48,1.48,0,0,0,.24,0c1.82,0,3.65,0,5.47,0a3,3,0,0,0,2.82-2.51A2.7,2.7,0,0,0,13,10.16s0-.05,0-.08l.18.18c.25-.35.52-.69.75-1A2.68,2.68,0,0,0,11.84,5c-1.75-.1-3.5,0-5.26-.06A2.35,2.35,0,0,0,6.2,5"/><path class="cls-1" d="M7.75,14.6V11.06c1.36,0,2.69-.08,4,0a1.48,1.48,0,0,1,1.44,1.77,1.65,1.65,0,0,1-1.63,1.72c-.71.05-1.43,0-2.14,0Z"/><path class="cls-1" d="M11.78,6.46c.67.07,1,.58,1,1.33s-.21,1.37-.85,1.61a3,3,0,0,1-.94.2c-1.05,0-2.1,0-3.22,0V6.24"/></g></g></symbol><symbol id="circle" viewBox="0 0 13.33 13.33"><title>circle</title><g id="Layer_2" data-name="Layer 2"><g id="Header"><circle class="cls-1" cx="6.67" cy="6.67" r="6.17"/><circle class="cls-1" cx="6.67" cy="6.67" r="4.17"/></g></g></symbol><symbol id="compliance" viewBox="0 0 22.8 18.67"><title>compliance</title><g id="Layer_2" data-name="Layer 2"><g id="My_sites_tick_all_the_boxes" data-name="My sites tick all the boxes"><path d="M11.77,15.44v-11a.37.37,0,1,0-.74,0v11a.37.37,0,1,0,.74,0Zm0,0" transform="translate(0 -0.04)"/><path d="M22.44,1.69A9.55,9.55,0,0,1,19.66,1a13.32,13.32,0,0,0-4.3-1,4.39,4.39,0,0,0-4,2.13,4.45,4.45,0,0,0-.52-.7A4.48,4.48,0,0,0,7.44,0a13.32,13.32,0,0,0-4.3,1,9.55,9.55,0,0,1-2.77.69A.37.37,0,0,0,0,2.06V16.88a.37.37,0,0,0,.37.37,10,10,0,0,0,3-.73,12.76,12.76,0,0,1,4.06-.92,3.75,3.75,0,0,1,2.9,1.18.37.37,0,0,0,.54-.5,4.48,4.48,0,0,0-3.44-1.42,13.32,13.32,0,0,0-4.3,1,12.28,12.28,0,0,1-2.4.67V2.41A12.16,12.16,0,0,0,3.38,1.7,12.76,12.76,0,0,1,7.44.78a3.63,3.63,0,0,1,3.61,2.35.37.37,0,0,0,.7,0A3.66,3.66,0,0,1,15.36.78a12.76,12.76,0,0,1,4.06.92,12.16,12.16,0,0,0,2.65.71V16.49a12.28,12.28,0,0,1-2.4-.67,13.32,13.32,0,0,0-4.3-1,4.48,4.48,0,0,0-3.44,1.42.37.37,0,1,0,.54.5,3.75,3.75,0,0,1,2.9-1.18,12.76,12.76,0,0,1,4.06.92,10,10,0,0,0,3,.73.37.37,0,0,0,.37-.37V2.06a.37.37,0,0,0-.37-.37Zm0,0" transform="translate(0 -0.04)"/><path d="M22.44,18a9.55,9.55,0,0,1-2.77-.69,13.32,13.32,0,0,0-4.3-1A4.51,4.51,0,0,0,12,17.63H10.76a4.51,4.51,0,0,0-3.32-1.3,13.32,13.32,0,0,0-4.3,1A9.55,9.55,0,0,1,.37,18a.37.37,0,0,0,0,.74,10,10,0,0,0,3-.73,12.76,12.76,0,0,1,4.06-.92,3.75,3.75,0,0,1,2.9,1.18.37.37,0,0,0,.27.12H12.2a.37.37,0,0,0,.27-.12,3.75,3.75,0,0,1,2.9-1.18,12.76,12.76,0,0,1,4.06.92,10,10,0,0,0,3,.73.37.37,0,0,0,0-.74Zm0,0" transform="translate(0 -0.04)"/></g></g></symbol><symbol id="contact" viewBox="0 0 14.14 14.14"><title>contact</title><g id="Layer_2" data-name="Layer 2"><g id="Header"><path class="cls-1" d="M10,0H4.1a1,1,0,0,0-1,1V13.1a1,1,0,0,0,1,1H10a1,1,0,0,0,1-1V1A1,1,0,0,0,10,0ZM3.53,1.89H10.6v9H3.53ZM4.1.47H10A.57.57,0,0,1,10.6,1v.38H3.53V1A.57.57,0,0,1,4.1.47ZM10,13.66H4.1a.57.57,0,0,1-.57-.57V11.31H10.6V13.1A.57.57,0,0,1,10,13.66Z"/><path class="cls-1" d="M7.07,11.54a.94.94,0,1,0,.94.94A.94.94,0,0,0,7.07,11.54Zm0,1.41a.47.47,0,1,1,.47-.47A.47.47,0,0,1,7.07,13Z"/><path class="cls-1" d="M6.13,1.18h.94a.24.24,0,0,0,0-.47H6.13a.24.24,0,1,0,0,.47Z"/><path class="cls-1" d="M7.77,1.18H8A.24.24,0,1,0,8,.71H7.77a.24.24,0,1,0,0,.47Z"/><path class="cls-1" d="M13.34,1.08a.24.24,0,0,0-.33.33A2.26,2.26,0,0,1,13,4.6a.24.24,0,0,0,.17.4.23.23,0,0,0,.17-.07A2.73,2.73,0,0,0,13.34,1.08Z"/><path class="cls-1" d="M12.35,1.61a.24.24,0,0,0-.33.33,1.55,1.55,0,0,1,0,2.19.24.24,0,0,0,.33.33,2,2,0,0,0,0-2.85Z"/><path class="cls-1" d="M1.13,1.41A.24.24,0,0,0,.8,1.08a2.73,2.73,0,0,0,0,3.86.24.24,0,1,0,.33-.33A2.26,2.26,0,0,1,1.13,1.41Z"/><path class="cls-1" d="M2.12,1.55a.24.24,0,0,0-.33,0,2,2,0,0,0,0,2.85.24.24,0,1,0,.33-.33,1.55,1.55,0,0,1,0-2.19A.24.24,0,0,0,2.12,1.55Z"/></g></g></symbol><symbol id="css3" viewBox="0 0 22.19 20.08"><title>css3</title><g id="Layer_2" data-name="Layer 2"><g id="About_me" data-name="About me"><polygon class="cls-1" points="3.3 0 2.56 3.73 17.73 3.73 17.25 6.13 2.07 6.13 1.34 9.85 16.51 9.85 15.65 14.11 9.55 16.13 4.25 14.11 4.62 12.26 0.89 12.26 0 16.73 8.76 20.08 18.85 16.73 22.19 0 3.3 0"/></g></g></symbol><symbol id="design" viewBox="0 0 17.09 17.08"><title>design</title><g id="Layer_2" data-name="Layer 2"><g id="My_sites_tick_all_the_boxes" data-name="My sites tick all the boxes"><path d="M16.41,13.23,8.6,6a4.44,4.44,0,0,0,.27-2.53A4.12,4.12,0,0,0,5.47.09,4.37,4.37,0,0,0,2.89.41a.55.55,0,0,0-.33.41.52.52,0,0,0,.17.49L5.14,3.74,3.73,5.15,1.3,2.72a.49.49,0,0,0-.49-.16A.56.56,0,0,0,.4,2.9,4.37,4.37,0,0,0,.07,5.48,4.09,4.09,0,0,0,1.22,7.72,4.11,4.11,0,0,0,3.44,8.89,4.35,4.35,0,0,0,6,8.59L9.6,12.51l3.62,3.9a2,2,0,0,0,1.47.68,2,2,0,0,0,1.47-.59l.33-.33a2,2,0,0,0-.08-2.94Zm-.72,2.14-.33.33a.83.83,0,0,1-.65.28.92.92,0,0,1-.66-.3L6.55,7.54a.57.57,0,0,0-.68-.13,3.41,3.41,0,0,1-2,.4A3.07,3.07,0,0,1,1.18,4.17L3.34,6.33a.58.58,0,0,0,.78,0l2.2-2.2a.55.55,0,0,0,0-.78L4.16,1.19A3.05,3.05,0,0,1,7.79,3.81a3.28,3.28,0,0,1-.36,2,.53.53,0,0,0,.1.65l8.14,7.55a.92.92,0,0,1,.31.65.86.86,0,0,1-.29.66Zm0,0" transform="translate(0 -0.02)"/></g></g></symbol><symbol id="email" viewBox="0 0 14.45 11"><title>email</title><g id="Layer_2" data-name="Layer 2"><g id="About_me" data-name="About me"><path class="cls-1" d="M12.69,0H1.77A1.77,1.77,0,0,0,0,1.77V9.23A1.77,1.77,0,0,0,1.77,11H12.68a1.77,1.77,0,0,0,1.77-1.77V1.77A1.77,1.77,0,0,0,12.69,0Zm1,9.23a1,1,0,0,1-1,1H1.77a1,1,0,0,1-1-1V1.77a1,1,0,0,1,1-1H12.68a1,1,0,0,1,1,1V9.23Zm0,0"/><path class="cls-1" d="M9.11,5.41l3.53-3.17a.4.4,0,1,0-.54-.6L7.23,6l-1-.85h0L6.21,5.1,2.34,1.63a.4.4,0,1,0-.54.6l3.58,3.2L1.82,8.77a.41.41,0,0,0,0,.57.41.41,0,0,0,.3.13.4.4,0,0,0,.28-.11L6,6l1,.88a.4.4,0,0,0,.54,0l1-.9,3.59,3.41a.4.4,0,0,0,.57,0,.41.41,0,0,0,0-.57Z"/><path class="cls-1" d="M9.11,5.41"/></g></g></symbol><symbol id="foundation" viewBox="0 0 23.91 23.91"><title>foundation</title><g id="Layer_2" data-name="Layer 2"><g id="About_me" data-name="About me"><path class="cls-1" d="M0,23.89V0H23.89s0,.07,0,.1q0,11.83,0,23.66s0,.05,0,.08a.38.38,0,0,1,0,0H0ZM10.84,9.11h4.89a.15.15,0,0,0,0-.11q0-1.06,0-2.12s0,0,0-.06v0H8.16s0,.09,0,.13q0,5,0,10.07s0,.06,0,.09a.38.38,0,0,0,0,.05h2.66s0-.07,0-.11q0-1.92,0-3.83s0-.05,0-.08a.48.48,0,0,1,0,0h4.8s0-.07,0-.11q0-1,0-2.09s0,0,0-.07a.33.33,0,0,0,0,0H10.84s0,0,0-.07C10.83,10,10.83,9.2,10.84,9.11Z"/><path class="cls-2" d="M0,23.89H23.88a.38.38,0,0,0,0,0s0-.05,0-.08q0-11.83,0-23.66s0-.07,0-.1h0V23.91H0Z"/></g></g></symbol><symbol id="functionality" viewBox="0 0 20.91 20.91"><title>functionality</title><g id="Layer_2" data-name="Layer 2"><g id="My_sites_tick_all_the_boxes" data-name="My sites tick all the boxes"><g class="cls-2"><path class="cls-3" d="M20.67,8.24A.73.73,0,0,0,20,7.67l-1.7-.24a1.44,1.44,0,0,0-.16-.36l1.05-1.38a.79.79,0,0,0,0-.89,8.69,8.69,0,0,0-1.42-1.7,8.68,8.68,0,0,0-1.7-1.42.79.79,0,0,0-.89,0L13.86,2.77a1.45,1.45,0,0,0-.36-.16L13.25.9a.73.73,0,0,0-.57-.65A9.3,9.3,0,0,0,10.46,0,9.31,9.31,0,0,0,8.23.25.73.73,0,0,0,7.66.9L7.42,2.6a1.45,1.45,0,0,0-.36.16L5.67,1.71a.79.79,0,0,0-.89,0,8.69,8.69,0,0,0-1.7,1.42,8.69,8.69,0,0,0-1.42,1.7.79.79,0,0,0,0,.89L2.76,7.06a1.7,1.7,0,0,0-.16.41l-1.7.2a.73.73,0,0,0-.65.57A9.31,9.31,0,0,0,0,10.47,9.3,9.3,0,0,0,.24,12.7a.73.73,0,0,0,.65.57l1.7.24a1.45,1.45,0,0,0,.16.36L1.7,15.25a.79.79,0,0,0,0,.89,8.68,8.68,0,0,0,1.42,1.7,8.69,8.69,0,0,0,1.7,1.42.79.79,0,0,0,.89,0l1.38-1.05a1.69,1.69,0,0,0,.41.16l.2,1.7a.73.73,0,0,0,.57.65,9.31,9.31,0,0,0,2.23.24,9.3,9.3,0,0,0,2.23-.24.73.73,0,0,0,.57-.65l.24-1.7a1.44,1.44,0,0,0,.36-.16l1.38,1.05a.79.79,0,0,0,.89,0,8.68,8.68,0,0,0,1.7-1.42,8.68,8.68,0,0,0,1.42-1.7.79.79,0,0,0,0-.89l-1.05-1.38a1.44,1.44,0,0,0,.16-.36l1.7-.24a.73.73,0,0,0,.65-.57,9.3,9.3,0,0,0,.24-2.23,9.31,9.31,0,0,0-.24-2.23ZM19.25,11.8l-1.62.2a.79.79,0,0,0-.65.53,6.83,6.83,0,0,1-.45,1.09.91.91,0,0,0,.08.85l1,1.26a13.22,13.22,0,0,1-.89,1c-.41.41-.73.69-1,.89l-1.3-1a.91.91,0,0,0-.85-.08,5.16,5.16,0,0,1-1.09.45.79.79,0,0,0-.53.65l-.2,1.62a11.06,11.06,0,0,1-2.67,0l-.2-1.62A.79.79,0,0,0,8.39,17a6.83,6.83,0,0,1-1.09-.45.83.83,0,0,0-.81.08l-1.3,1a13.27,13.27,0,0,1-1-.89,11.89,11.89,0,0,1-.85-1l1-1.3a.9.9,0,0,0,.08-.85,4.42,4.42,0,0,1-.45-1.09A.8.8,0,0,0,3.28,12l-1.62-.2a11.06,11.06,0,0,1,0-2.67l1.62-.2a.8.8,0,0,0,.65-.53c.08-.28.2-.53.2-.57s.12-.28.24-.53a.83.83,0,0,0-.08-.81l-1-1.3a11.26,11.26,0,0,1,.85-1,11.26,11.26,0,0,1,1-.85l1.3,1a.83.83,0,0,0,.81.08,4.42,4.42,0,0,1,1.09-.45.8.8,0,0,0,.53-.65l.2-1.62a11.06,11.06,0,0,1,2.67,0L12,3.29a.8.8,0,0,0,.53.65,6.83,6.83,0,0,1,1.09.45.9.9,0,0,0,.85-.08l1.3-1a11.89,11.89,0,0,1,1,.85,13.27,13.27,0,0,1,.89,1l-1,1.3a.83.83,0,0,0-.08.81A5.29,5.29,0,0,1,17,8.4a.74.74,0,0,0,.61.53l1.62.2a11.06,11.06,0,0,1,0,2.67Zm0,0" transform="translate(0 -0.01)"/></g><path class="cls-3" d="M10.46,5.48a5,5,0,1,0,5,5,5,5,0,0,0-5-5Zm0,8.39a3.4,3.4,0,1,1,3.4-3.4,3.37,3.37,0,0,1-3.4,3.4Zm0,0" transform="translate(0 -0.01)"/></g></g></symbol><symbol id="git" viewBox="0 0 23.78 23.78"><title>git</title><g id="Layer_2" data-name="Layer 2"><g id="About_me" data-name="About me"><path class="cls-1" d="M11.89,0A11.89,11.89,0,1,0,23.78,11.89,11.89,11.89,0,0,0,11.89,0Zm0,21.92a10,10,0,1,1,10-10A10,10,0,0,1,11.89,21.92Z"/><path class="cls-1" d="M15.61,6c-1.22.67-2.48.1-3.39,0-4-.46-5.28,3.61-2.36,5.24-.75.34-.7,2.06.1,2.31A2.06,2.06,0,0,0,8.73,17c1.24,1.16,5,1.08,6.15,0a2.37,2.37,0,0,0,.21-3c-.62-.65-3.74-.75-3.69-1.78,0-.72,1.16-.61,1.85-.89a2.75,2.75,0,0,0,1.54-3.38c.29,0,.53-.13.82-.18ZM10.68,9.71c-1.5-2.85,3.45-2.64,1.95,0A2,2,0,0,1,10.68,9.71Zm2.77,5.6c.13,1.28-2.84,1.33-3.18.44s.07-1,.92-1.16S13.36,14.46,13.45,15.31Z"/></g></g></symbol><symbol id="gulp" viewBox="0 0 15.25 33.86"><title>gulp</title><g id="Layer_2" data-name="Layer 2"><g id="About_me" data-name="About me"><path class="cls-1" d="M9.08,33.86l.31-.07c.65-.15,1.31-.29,1.94-.48a.73.73,0,0,0,.52-.75c.05-1.37.15-2.75.21-4.12a2.94,2.94,0,0,1,.49-1.67,8.54,8.54,0,0,0,.47-.84,18.8,18.8,0,0,1-10.92,0c.3.51.57,1,.82,1.43a1.27,1.27,0,0,1,.15.49c.13,1.62.26,3.25.37,4.87a.49.49,0,0,0,.28.48A9.15,9.15,0,0,0,5,33.65a13.16,13.16,0,0,0,1.33.21M14.23,0a.72.72,0,0,1-.08.13l-3.78,4a1,1,0,0,0-.24.42c-.24.87-.46,1.75-.67,2.62a.33.33,0,0,1-.38.3c-1.71,0-3.42.06-5.12.18a30.25,30.25,0,0,0-3.32.5c-.23,0-.43.29-.65.44A2.32,2.32,0,0,0,.64,9a13.88,13.88,0,0,0,2.27.41c1.93.11,3.87.19,5.81.21A25.51,25.51,0,0,0,14,9.12a5.52,5.52,0,0,0,.94-.3.42.42,0,0,0,.23-.28c0-.08-.12-.2-.22-.25a1.61,1.61,0,0,0-.52-.2c-1.1-.17-2.19-.34-3.29-.47-.27,0-.37-.08-.29-.37.19-.7.34-1.41.53-2.11a1.12,1.12,0,0,1,.26-.44l3.37-3.63c.26-.28.26-.39,0-.66A5.94,5.94,0,0,0,14.57,0m.61,9.27a41.41,41.41,0,0,1-15.09,0l.85,8H1a2.94,2.94,0,0,1,.12-.29c.37-.67.71-1.37,1.13-2a3.13,3.13,0,0,1,1.35-1.14,1.36,1.36,0,0,1,1.84.78.39.39,0,0,1-.14.58c-.24.12-.32-.11-.43-.25a1.26,1.26,0,0,1-.09-.14.68.68,0,0,0-1.1-.25,2.34,2.34,0,0,0-.42.37,6.5,6.5,0,0,0-1.41,2.48,5,5,0,0,0-.24,1.39c0,.58.35.74.83.41a3.92,3.92,0,0,0,1.59-2,3.5,3.5,0,0,1,.27-.67.4.4,0,0,1,.33-.14c.07,0,.18.17.17.25a2.64,2.64,0,0,1-.1.71c-.3,1-.62,2-.94,3a2.76,2.76,0,0,1-.22.55c0,.09-.22.19-.27.16a.41.41,0,0,1-.19-.3,2.29,2.29,0,0,1,.11-.58c.1-.35.2-.7.33-1.14-.74.54-1.27,1.32-2.29,1,0,.1,0,.19,0,.27.15,1.52.33,3,.45,4.57a.69.69,0,0,0,.58.71,23,23,0,0,0,2.93.64c1.27.12,2.55.08,3.83.08a13.83,13.83,0,0,0,3.6-.63,1,1,0,0,0,.81-1c.16-1.48.35-3,.52-4.43,0-.38.08-.77.13-1.24-.36.28-.63.5-.91.7a1.43,1.43,0,0,1-1.05.3.44.44,0,0,1-.38-.66A2.2,2.2,0,0,1,12,19c.25-.34.52-.66.76-1a1.87,1.87,0,0,0,.17-.38l-.08-.07a1,1,0,0,0-.36.1,4.12,4.12,0,0,0-.79.68,11.45,11.45,0,0,0-1.39,2.87A7,7,0,0,1,10,22c-.09.16-.23.31-.46.19s-.2-.3-.12-.48c.22-.53.45-1.05.68-1.58l.3-.68a2.29,2.29,0,0,0-.47.27,3.62,3.62,0,0,1-.49.28.68.68,0,0,1-1-.28c-.19.1-.39.2-.59.29-.47.2-.72,0-.75-.47,0-.07,0-.14,0-.3-.13.16-.2.26-.29.34a1.61,1.61,0,0,1-1,.51c-.49,0-.79-.22-.67-.69a20.22,20.22,0,0,1,.75-2.17c.07-.19.22-.48.51-.34s.1.4,0,.61c-.17.44-.37.87-.52,1.32,0,.14,0,.32.07.49.16,0,.38,0,.48-.12A8.21,8.21,0,0,0,7.27,18c.19-.3.29-.66.47-1,.06-.1.23-.15.35-.22,0,.13.16.28.13.39-.07.3-.2.58-.3.87a9.71,9.71,0,0,0-.27,1c-.05.26.09.34.33.25a.91.91,0,0,0,.6-.56c.21-.6.44-1.2.68-1.79.35-.84.7-1.68,1.06-2.52.07-.17.19-.31.41-.23s.22.26.15.44-.22.55-.33.83c-.44,1.11-.89,2.23-1.32,3.34a2.88,2.88,0,0,0-.09.51l.21,0,.23-.12a3.09,3.09,0,0,0,1.57-1.87c0-.18.16-.4.42-.33s.14.28.16.44a.46.46,0,0,0,0,.09l.28-.22a4.88,4.88,0,0,1,.6-.41c.3-.16.75-.12.87.13a.94.94,0,0,1,0,.73,10.25,10.25,0,0,1-.79,1.17l-.3.41.05.08a1.56,1.56,0,0,0,.34-.12c.2-.13.38-.3.59-.42a1.88,1.88,0,0,0,.89-1.61c.18-1.91.42-3.81.63-5.71C15,10.78,15.1,10,15.17,9.27Z"/><path class="cls-2" d="M6.3,33.86A13.16,13.16,0,0,1,5,33.65a9.15,9.15,0,0,1-1.26-.46.49.49,0,0,1-.28-.48c-.11-1.63-.24-3.25-.37-4.87a1.27,1.27,0,0,0-.15-.49c-.25-.46-.52-.91-.82-1.43a18.8,18.8,0,0,0,10.92,0,8.54,8.54,0,0,1-.47.84,2.94,2.94,0,0,0-.49,1.67c-.05,1.37-.15,2.75-.21,4.12a.73.73,0,0,1-.52.75c-.64.19-1.3.32-1.94.48l-.31.07Z"/><path class="cls-2" d="M14.57,0A5.94,5.94,0,0,1,15,.39c.27.27.27.38,0,.66L11.68,4.69a1.12,1.12,0,0,0-.26.44c-.19.7-.35,1.41-.53,2.11-.08.29,0,.34.29.37,1.1.14,2.2.3,3.29.47a1.61,1.61,0,0,1,.52.2c.1.05.23.18.22.25a.42.42,0,0,1-.23.28,5.52,5.52,0,0,1-.94.3,25.51,25.51,0,0,1-5.32.47c-1.94,0-3.87-.1-5.81-.21A13.88,13.88,0,0,1,.64,9,2.32,2.32,0,0,1,0,8.56c.21-.15.41-.39.65-.44A30.25,30.25,0,0,1,4,7.62c1.7-.12,3.41-.13,5.12-.18a.33.33,0,0,0,.38-.3c.22-.88.44-1.75.67-2.62a1,1,0,0,1,.24-.42l3.78-4A.72.72,0,0,0,14.23,0Z"/><path class="cls-2" d="M15.17,9.27c-.07.74-.14,1.51-.23,2.29-.21,1.9-.45,3.81-.63,5.71a1.88,1.88,0,0,1-.89,1.61c-.21.12-.39.29-.59.42a1.56,1.56,0,0,1-.34.12l-.05-.08.3-.41a10.25,10.25,0,0,0,.79-1.17.94.94,0,0,0,0-.73c-.12-.25-.57-.29-.87-.13a4.88,4.88,0,0,0-.6.41l-.28.22a.46.46,0,0,1,0-.09c0-.16.1-.38-.16-.44s-.37.15-.42.33A3.09,3.09,0,0,1,9.6,19.19l-.23.12-.21,0a2.88,2.88,0,0,1,.09-.51c.43-1.12.88-2.23,1.32-3.34.11-.28.22-.55.33-.83s.07-.35-.15-.44-.33.05-.41.23C10,15.3,9.62,16.14,9.28,17c-.24.59-.47,1.19-.68,1.79a.91.91,0,0,1-.6.56c-.24.09-.38,0-.33-.25a9.71,9.71,0,0,1,.27-1c.09-.29.23-.57.3-.87,0-.12-.08-.26-.13-.39-.12.07-.29.11-.35.22-.18.32-.27.68-.47,1a8.21,8.21,0,0,1-.87,1.11c-.09.1-.32.09-.48.12,0-.16-.11-.35-.07-.49.15-.45.35-.88.52-1.32.08-.2.27-.46,0-.61s-.43.15-.51.34a20.22,20.22,0,0,0-.75,2.17c-.12.47.18.72.67.69a1.61,1.61,0,0,0,1-.51c.09-.08.15-.18.29-.34,0,.16,0,.23,0,.3,0,.5.27.67.75.47.2-.08.39-.19.59-.29a.68.68,0,0,0,1,.28,3.62,3.62,0,0,0,.49-.28,2.29,2.29,0,0,1,.47-.27l-.3.68c-.23.53-.45,1-.68,1.58-.08.18-.11.36.12.48s.37,0,.46-.19a7,7,0,0,0,.37-.81,11.45,11.45,0,0,1,1.39-2.87,4.12,4.12,0,0,1,.79-.68,1,1,0,0,1,.36-.1l.08.07a1.87,1.87,0,0,1-.17.38c-.25.34-.51.66-.76,1a2.2,2.2,0,0,0-.26.42.44.44,0,0,0,.38.66,1.43,1.43,0,0,0,1.05-.3c.28-.21.55-.43.91-.7,0,.47-.08.85-.13,1.24-.17,1.48-.36,3-.52,4.43a1,1,0,0,1-.81,1,13.83,13.83,0,0,1-3.6.63c-1.28,0-2.56,0-3.83-.08a23,23,0,0,1-2.93-.64.69.69,0,0,1-.58-.71c-.13-1.53-.3-3-.45-4.57,0-.08,0-.17,0-.27,1,.29,1.55-.5,2.29-1-.13.44-.23.79-.33,1.14a2.29,2.29,0,0,0-.11.58.41.41,0,0,0,.19.3c.05,0,.22-.08.27-.16a2.76,2.76,0,0,0,.22-.55c.32-1,.64-2,.94-3a2.64,2.64,0,0,0,.1-.71c0-.09-.11-.25-.17-.25a.4.4,0,0,0-.33.14,3.5,3.5,0,0,0-.27.67,3.92,3.92,0,0,1-1.59,2c-.48.33-.84.16-.83-.41a5,5,0,0,1,.24-1.39A6.5,6.5,0,0,1,3.28,14.9a2.34,2.34,0,0,1,.42-.37.68.68,0,0,1,1.1.25,1.26,1.26,0,0,0,.09.14c.11.14.19.37.43.25a.39.39,0,0,0,.14-.58,1.36,1.36,0,0,0-1.84-.78,3.13,3.13,0,0,0-1.35,1.14c-.42.64-.76,1.33-1.13,2a2.94,2.94,0,0,0-.12.29H.94l-.85-8A41.41,41.41,0,0,0,15.17,9.27Z"/></g></g></symbol><symbol id="illustrator" viewBox="0 0 23.08 23.08"><title>illustrator</title><g id="Layer_2" data-name="Layer 2"><g id="About_me" data-name="About me"><path class="cls-1" d="M8,14.53h3.25l.88,2.91h2.76L11.37,6.1H8L4.54,17.44H7.2ZM9.57,8h0c.17.68,1.28,4.59,1.28,4.59H8.38S9.4,8.7,9.57,8Z"/><rect class="cls-1" x="15.89" y="9.22" width="2.56" height="8.22"/><path class="cls-1" d="M17.16,8.21a1.29,1.29,0,1,0,0-2.57,1.25,1.25,0,0,0-1.35,1.3A1.25,1.25,0,0,0,17.16,8.21Z"/><path class="cls-1" d="M0,0V23.08H23.08V0ZM21.65,21.65H1.43V1.43H21.65Z"/></g></g></symbol><symbol id="javascript" viewBox="0 0 22.48 22.48"><title>javascript</title><g id="Layer_2" data-name="Layer 2"><g id="About_me" data-name="About me"><path class="cls-1" d="M0,22.48V0H22.48V22.48Zm13.41-4a.28.28,0,0,0,0,.07l.07.12a3.67,3.67,0,0,0,1.66,1.55,5,5,0,0,0,3.32.29,2.88,2.88,0,0,0,1.88-1.28,3,3,0,0,0-1-4.09c-.68-.41-1.43-.71-2.14-1.07a4.22,4.22,0,0,1-.84-.53.82.82,0,0,1-.2-.93.81.81,0,0,1,.69-.58,1.31,1.31,0,0,1,1.4.57l.21.3c.52-.34,1-.67,1.55-1,0,0,0-.16,0-.21a3.06,3.06,0,0,0-1-1.05,3.62,3.62,0,0,0-2.7-.43,2.61,2.61,0,0,0-2.24,2,2.86,2.86,0,0,0,.85,3,6.31,6.31,0,0,0,1.75,1c.47.21.94.42,1.38.67a.93.93,0,0,1,.49,1,1,1,0,0,1-.74.76,2.19,2.19,0,0,1-2.43-.75c-.11-.13-.2-.28-.31-.43Zm-7.47.24a3.1,3.1,0,0,0,1.21,1.42,3.86,3.86,0,0,0,3.28.33,2.41,2.41,0,0,0,1.69-1.78,4.75,4.75,0,0,0,.17-1.17c0-2.34,0-4.69,0-7,0-.17,0-.23-.22-.23-.54,0-1.09,0-1.64,0-.23,0-.3.06-.3.3,0,2.07,0,4.14,0,6.21,0,.31,0,.62,0,.93a1,1,0,0,1-.92,1.06A1.21,1.21,0,0,1,8,18.25c-.13-.18-.25-.37-.37-.56Z"/></g></g></symbol><symbol id="jquery" viewBox="0 0 25.9 24.72"><title>jquery</title><g id="Layer_2" data-name="Layer 2"><g id="About_me" data-name="About me"><path class="cls-1" d="M3.32,3.49l-.06.07c-.34.43-.67.87-1,1.29A9.67,9.67,0,0,0,.85,7,9.86,9.86,0,0,0,0,11.56a11.65,11.65,0,0,0,.28,2.07,13.86,13.86,0,0,0,3.24,6.22,15,15,0,0,0,5.32,3.83,11.76,11.76,0,0,0,2.09.72,14.33,14.33,0,0,0,2.64.31,14.65,14.65,0,0,0,2.9-.17,11.9,11.9,0,0,0,3.19-1,11.57,11.57,0,0,0,5.15-4.84c.08-.14.15-.28.22-.42l.2-.42a.56.56,0,0,0-.12.12A9.19,9.19,0,0,1,22,20.43a11.68,11.68,0,0,1-5,1.15,16,16,0,0,1-2-.1,13.85,13.85,0,0,1-1.92-.33,14.14,14.14,0,0,1-4.36-2,14.61,14.61,0,0,1-5.27-6A12.4,12.4,0,0,1,2.35,8.92a10.76,10.76,0,0,1,0-2,9.81,9.81,0,0,1,.54-2.43C3,4.17,3.18,3.84,3.32,3.49ZM9.94,1.18c-.36.51-.72,1-1.08,1.53A7,7,0,0,0,7.55,6.38a8,8,0,0,0,.13,2.19,9.64,9.64,0,0,0,2.44,4.7,11,11,0,0,0,3.06,2.33,8.86,8.86,0,0,0,2.16.82,10.45,10.45,0,0,0,1.64.2,10.87,10.87,0,0,0,2.91-.2,8.06,8.06,0,0,0,5.61-4.19c.14-.27.26-.55.4-.84h0l-.07.09a6.84,6.84,0,0,1-1.7,1.6,8.25,8.25,0,0,1-5.28,1.31,9.85,9.85,0,0,1-2.38-.47,10.73,10.73,0,0,1-5.24-3.66,8.88,8.88,0,0,1-2-6A9.55,9.55,0,0,1,9.31,3,6.83,6.83,0,0,1,9.94,1.18ZM15.32,0l-.4.56a4.83,4.83,0,0,0-.79,4.3,6,6,0,0,0,1.7,2.82A6.39,6.39,0,0,0,21.4,9.48a4.66,4.66,0,0,0,3-1.75c.23-.29.43-.61.64-.91l0,0,0,.06a3.9,3.9,0,0,1-2.85,1.33,6.83,6.83,0,0,1-2.72-.39,6.62,6.62,0,0,1-4.18-4.15A4.62,4.62,0,0,1,15,1.1C15.09.7,15.23.32,15.32,0Z"/><path class="cls-2" d="M3.32,3.49c-.14.35-.29.68-.41,1a9.81,9.81,0,0,0-.54,2.43,10.76,10.76,0,0,0,0,2A12.4,12.4,0,0,0,3.5,13.19a14.61,14.61,0,0,0,5.27,6,14.14,14.14,0,0,0,4.36,2,13.85,13.85,0,0,0,1.92.33,16,16,0,0,0,2,.1,11.68,11.68,0,0,0,5-1.15A9.19,9.19,0,0,0,25.12,18a.56.56,0,0,1,.12-.12l-.2.42c-.07.14-.14.29-.22.42a11.57,11.57,0,0,1-5.15,4.84,11.9,11.9,0,0,1-3.19,1,14.65,14.65,0,0,1-2.9.17,14.33,14.33,0,0,1-2.64-.31,11.76,11.76,0,0,1-2.09-.72,15,15,0,0,1-5.32-3.83A13.86,13.86,0,0,1,.29,13.64,11.65,11.65,0,0,1,0,11.56,9.86,9.86,0,0,1,.85,7,9.67,9.67,0,0,1,2.24,4.85c.35-.42.68-.86,1-1.29Z"/><path class="cls-3" d="M9.94,1.18A6.83,6.83,0,0,0,9.31,3a9.55,9.55,0,0,0-.17,1.36,8.88,8.88,0,0,0,2,6,10.73,10.73,0,0,0,5.24,3.66,9.85,9.85,0,0,0,2.38.47,8.25,8.25,0,0,0,5.28-1.31,6.84,6.84,0,0,0,1.7-1.6l.07-.09h0c-.14.3-.25.58-.4.84a8.06,8.06,0,0,1-5.61,4.19,10.87,10.87,0,0,1-2.91.2,10.45,10.45,0,0,1-1.64-.2,8.86,8.86,0,0,1-2.16-.82,11,11,0,0,1-3.06-2.33,9.64,9.64,0,0,1-2.44-4.7,8,8,0,0,1-.13-2.19A7,7,0,0,1,8.86,2.72C9.22,2.21,9.58,1.69,9.94,1.18Z"/><path class="cls-3" d="M15.32,0c-.09.32-.23.7-.31,1.1a4.62,4.62,0,0,0,.22,2.53,6.62,6.62,0,0,0,4.18,4.15,6.83,6.83,0,0,0,2.72.39A3.9,3.9,0,0,0,25,6.84l0-.06,0,0c-.21.31-.41.62-.64.91a4.66,4.66,0,0,1-3,1.75,6.39,6.39,0,0,1-5.57-1.81,6,6,0,0,1-1.7-2.82,4.83,4.83,0,0,1,.79-4.3Z"/></g></g></symbol><symbol id="linux" viewBox="0 0 23.01 26.94"><title>linux</title><g id="Layer_2" data-name="Layer 2"><g id="About_me" data-name="About me"><g id="_Group_" data-name="&lt;Group&gt;"><path id="_Compound_Path_" data-name="&lt;Compound Path&gt;" class="cls-1" d="M22.3,21.63c-.79-.32-1.13-.75-1.1-1.39a2.13,2.13,0,0,0-.59-1.51,6.54,6.54,0,0,0,0-3.47,30,30,0,0,0-3.69-6,5.17,5.17,0,0,1-.73-3.08,9.37,9.37,0,0,0-.69-3.76A3.88,3.88,0,0,0,11.8,0,5,5,0,0,0,9,.86C7.38,2,7.59,4.4,7.73,6c0,.22,0,.43,0,.61a8,8,0,0,1-.1,2.65,11.09,11.09,0,0,1-.8,1.13c-.39.51-.83,1.1-1.2,1.64a12.73,12.73,0,0,0-1.12,2.61,12.55,12.55,0,0,1-.71,1.77,2.41,2.41,0,0,0-.23,1.81A1.85,1.85,0,0,0,3,19c-.24.51-.73.79-1.74,1a1.34,1.34,0,0,0-1,.58,1.65,1.65,0,0,0,0,1.32A2.06,2.06,0,0,1,.2,23.35L0,23.83a.87.87,0,0,0,.09.76c.38.58,1.5.79,2.65.93a10.22,10.22,0,0,1,2.16.62,10.23,10.23,0,0,0,2.12.61l.3,0A1.76,1.76,0,0,0,9,25.82a18,18,0,0,1,2.9-.34,12.61,12.61,0,0,1,2.89.3,2.32,2.32,0,0,0,.87.95,2.1,2.1,0,0,0,1,.22h0a2.36,2.36,0,0,0,1.72-.71,15.31,15.31,0,0,1,3.12-2l.66-.36a1.46,1.46,0,0,0,.9-1.3A1.1,1.1,0,0,0,22.3,21.63ZM9,21.51c-.08-.53-.75-1-1.54-1.65A5.44,5.44,0,0,1,5.9,18.33a4.62,4.62,0,0,1,.48-3.59A9.1,9.1,0,0,0,7.11,13a6.29,6.29,0,0,1,.76-1.75A4.45,4.45,0,0,0,8.79,9a2.77,2.77,0,0,0,1.64.89,1,1,0,0,0,.26,0,8.81,8.81,0,0,0,1.57-.79A6.76,6.76,0,0,1,13.6,8.4a37.16,37.16,0,0,1,2.91,7.25,7.65,7.65,0,0,1-.11,2.76l-.27,0c-.64,0-.81.35-.85.55a22.57,22.57,0,0,0-.13,2.65,5.26,5.26,0,0,1-3.07,1.92,13.33,13.33,0,0,1-1.89.15,6.29,6.29,0,0,1-.93-.06l-.84-1A1,1,0,0,0,9,21.51ZM10.07,5.67,10,5.7c0-.06,0-.11,0-.17a1,1,0,0,0-.83-.91H9.05a.7.7,0,0,0-.51.46c.09-.54.4-.94.76-.94s.79.58.79,1.26A1.88,1.88,0,0,1,10.07,5.67Zm3.33.41a1.31,1.31,0,0,0,.06-.4,1,1,0,0,0-.9-1.1,1,1,0,0,0-.89,1.1,1.23,1.23,0,0,0,0,.13l-.08,0a1.67,1.67,0,0,1-.09-.53,1.23,1.23,0,0,1,1.06-1.34,1.23,1.23,0,0,1,1.06,1.34A1.57,1.57,0,0,1,13.4,6.07ZM13,7.51s0,.05-.22.16l-.38.21-.1.06a9.65,9.65,0,0,1-1.66.88c-.18,0-.29,0-.54-.22l-.18-.12a2.15,2.15,0,0,1-.78-.75c.15-.11.51-.4.7-.57a2,2,0,0,1,.95-.59h0A9.22,9.22,0,0,1,12,7l.46.18A1.09,1.09,0,0,1,13,7.51ZM16.15,24a13.14,13.14,0,0,0,.39-2.85c0-.16,0-.34,0-.51a4.8,4.8,0,0,1,0-.94h0a1.6,1.6,0,0,0,.75,1.52,1.69,1.69,0,0,0,.67.13,2.72,2.72,0,0,0,1.69-.62,3,3,0,0,0,.43-.56.66.66,0,0,1,0,.27,1.9,1.9,0,0,0,.82,1.71l.08,0c.2.11.73.39.74.52a.12.12,0,0,1,0,0,7.59,7.59,0,0,1-1.06.59,9.18,9.18,0,0,0-2.13,1.31,2.91,2.91,0,0,1-1.62,1l-.13,0C16.31,25.47,16,24.86,16.15,24ZM1.56,21.68a1.21,1.21,0,0,1,0-.52c0-.12.6-.24.84-.29a3.38,3.38,0,0,0,.93-.29,1.89,1.89,0,0,0,.63-.85,1.33,1.33,0,0,1,.35-.53h0c.25,0,.77.52,1.08,1l.38.63a19.93,19.93,0,0,0,1.51,2.32c.32.34.83,1,.7,1.55a1.69,1.69,0,0,1-.7.86l-.15,0a10,10,0,0,1-2.72-.86l-.11,0a8.53,8.53,0,0,0-1.68-.37A5.53,5.53,0,0,1,1.34,24c-.09-.1,0-.44.11-.74a4.69,4.69,0,0,0,.18-.66A2.44,2.44,0,0,0,1.56,21.68Z"/></g></g></g></symbol><symbol id="location" viewBox="0 0 10.68 15.25"><title>location</title><g id="Layer_2" data-name="Layer 2"><g id="Header"><path class="cls-1" d="M5.39,3.34A1.95,1.95,0,1,0,7.34,5.29,2,2,0,0,0,5.39,3.34Zm0,3.34A1.39,1.39,0,1,1,6.78,5.29,1.39,1.39,0,0,1,5.39,6.68Z"/><path class="cls-1" d="M9.11,1.56a5.34,5.34,0,0,0-7.55,0,6.08,6.08,0,0,0-.5,7.5l4.28,6.18L9.61,9.08A6.08,6.08,0,0,0,9.11,1.56Zm0,7.19L5.34,14.27,1.51,8.74A5.5,5.5,0,0,1,2,2,4.79,4.79,0,0,1,8.72,2,5.5,5.5,0,0,1,9.16,8.75Z"/></g></g></symbol><symbol id="mac" viewBox="0 0 21.66 26.71"><title>mac</title><g id="Layer_2" data-name="Layer 2"><g id="About_me" data-name="About me"><path id="Apple" class="cls-1" d="M12.21,2a5.94,5.94,0,0,1,3.91-2,5.87,5.87,0,0,1-1.38,4.27,4.94,4.94,0,0,1-3.95,1.89A5.63,5.63,0,0,1,12.21,2Zm7.61,21.37c-1.11,1.63-2.26,3.25-4.08,3.28s-2.35-1.06-4.39-1.06S8.68,26.64,7,26.7,3.92,25,2.8,23.32C.51,20-1.23,14,1.11,9.87a6.49,6.49,0,0,1,5.5-3.35C8.33,6.49,10,7.68,11,7.68s3-1.44,5.09-1.22A6.2,6.2,0,0,1,21,9.1a6.06,6.06,0,0,0-2.88,5.09,5.89,5.89,0,0,0,3.57,5.4A15,15,0,0,1,19.82,23.39Z"/></g></g></symbol><symbol id="message" viewBox="0 0 35.97 23.95"><title>message</title><g id="Layer_2" data-name="Layer 2"><g id="My_sites_tick_all_the_boxes" data-name="My sites tick all the boxes"><g class="cls-2"><path class="cls-3" d="M36,1.43a.23.23,0,0,0,0,0,.51.51,0,0,0,0-.13v0A.65.65,0,0,0,35.9,1l0,0h0V1a.59.59,0,0,0-.13-.14l0,0L35.55.76h-.32L.48,7.92A.6.6,0,0,0,.32,9l10,5.25L12,24s0,0,0,0a.66.66,0,0,0,0,.14.61.61,0,0,0,0,.07.58.58,0,0,0,.06.16v0h0l0,0,.09.09v0h0l.11.06.05,0,.16,0h0a.59.59,0,0,0,.43-.19l6.63-4.42,6.94,4.51a.6.6,0,0,0,.33.1.61.61,0,0,0,.19,0,.59.59,0,0,0,.37-.36L35.93,1.54a.41.41,0,0,0,0-.06v0h0ZM29,5.25,14.65,15.81l-.06.06,0,0,0,0,0,0a.5.5,0,0,0-.06.11v0h0l-1.65,5.35-1.3-7.24ZM13.72,22.62l1.63-5.39,2.54,1.65.73.47L16.15,21ZM31.17,2.8,10.82,13.23,2.35,8.76ZM26.68,23.17l-9.22-6-1.4-.91L34.12,3Zm0,0" transform="translate(0 -0.73)"/></g></g></g></symbol><symbol id="name" viewBox="0 0 26.4 26.4"><title>name</title><g id="Layer_2" data-name="Layer 2"><g id="Footer"><path class="cls-1" d="M13.2,26.4A13.2,13.2,0,1,1,26.4,13.2,13.21,13.21,0,0,1,13.2,26.4ZM13.2.8A12.4,12.4,0,1,0,25.6,13.2,12.41,12.41,0,0,0,13.2.8Zm0,0"/><path class="cls-1" d="M13.2,26.4A13.1,13.1,0,0,1,5.56,24a.4.4,0,0,1,.09-.7C9,22,9.5,21,9.5,19.12a1.39,1.39,0,0,0-.32-1,5.21,5.21,0,0,1-.9-2.35c0-.2-.07-.22-.25-.31-.48-.23-.93-.57-1-2.11A1.82,1.82,0,0,1,7.45,12c0-.27-.13-.72-.2-1.22C6.89,8.58,6.88,5.86,10,4.59c2.72-1.1,4.9-.5,5.58.22A3.59,3.59,0,0,1,18.18,6c1.34,1.55.91,5.09.76,6a1.82,1.82,0,0,1,.47,1.34c-.11,1.56-.56,1.9-1,2.13-.18.09-.22.1-.25.31a5.22,5.22,0,0,1-.9,2.35,1.39,1.39,0,0,0-.32,1c0,1.91.54,2.91,3.85,4.13a.4.4,0,0,1,.09.7A13.1,13.1,0,0,1,13.2,26.4ZM6.65,23.72a12.35,12.35,0,0,0,13.09,0c-2.78-1.15-3.65-2.29-3.65-4.61a2.12,2.12,0,0,1,.46-1.42,4.55,4.55,0,0,0,.77-2,1.09,1.09,0,0,1,.7-.88c.25-.12.5-.24.59-1.44,0-.61-.28-.78-.29-.79a.42.42,0,0,1-.21-.43c.2-1.06.52-4.38-.55-5.63a2.81,2.81,0,0,0-2.1-.86h-.11A.65.65,0,0,1,15,5.4c-.21-.37-2.11-1.12-4.73-.06S7.71,8.63,8.05,10.68c.11.76.23,1.43.23,1.43a.4.4,0,0,1-.23.44s-.27.17-.27.8c.09,1.17.34,1.29.59,1.41a1.08,1.08,0,0,1,.69.88,4.53,4.53,0,0,0,.78,2,2.14,2.14,0,0,1,.46,1.42c0,2.32-.87,3.47-3.65,4.61Zm0,0"/></g></g></symbol><symbol id="nodejs" viewBox="0 0 23.48 26.48"><title>nodejs</title><g id="Layer_2" data-name="Layer 2"><g id="About_me" data-name="About me"><path class="cls-1" d="M12,26.48a5.34,5.34,0,0,0,.79-.3l9.64-5.56a2,2,0,0,0,1.06-1.86q0-5.53,0-11.05A2,2,0,0,0,22.4,5.83L12.88.33a2.13,2.13,0,0,0-2.28,0L1.1,5.82A2,2,0,0,0,0,7.68q0,5.55,0,11.1a2,2,0,0,0,1,1.8c.82.49,1.65,1,2.49,1.43A4.64,4.64,0,0,0,6,22.66a2.55,2.55,0,0,0,2.54-2.11,4.8,4.8,0,0,0,.1-.95q0-5.38,0-10.77c0-.06,0-.12,0-.18a.31.31,0,0,0-.36-.35H7.39c-.47,0-.51,0-.51.52q0,5.29,0,10.58c0,.1,0,.21,0,.31a1.21,1.21,0,0,1-1,1.12,2,2,0,0,1-1.41-.28L2,19.14a.46.46,0,0,1-.26-.46q0-5.46,0-10.92A.47.47,0,0,1,2,7.31l9.43-5.45a.51.51,0,0,1,.57,0l9.45,5.46a.47.47,0,0,1,.27.46q0,5.46,0,10.92a.49.49,0,0,1-.28.47L12,24.6a.5.5,0,0,1-.57,0L9.21,23.26a.44.44,0,0,0-.48,0c-.42.21-.86.39-1.29.59a1.58,1.58,0,0,0-.22.15c.06.08.11.18.18.23L10,25.75a5.14,5.14,0,0,0,1.5.73m3.6-6.8A8.11,8.11,0,0,0,18.53,19a3.26,3.26,0,0,0,2-2.91,2.68,2.68,0,0,0-1.9-3,6.54,6.54,0,0,0-1.16-.34c-1.09-.19-2.18-.34-3.27-.53-.61-.11-1.21-.27-1.81-.43a.72.72,0,0,1-.52-.5,1.26,1.26,0,0,1,.53-1.42,2.34,2.34,0,0,1,.66-.28,7.56,7.56,0,0,1,3.36,0A1.94,1.94,0,0,1,18,11.06c0,.11.07.21.09.32a.39.39,0,0,0,.44.35h1.24c.31,0,.41-.13.39-.44a3.58,3.58,0,0,0-2.63-3.35,9.61,9.61,0,0,0-3.81-.33,5.58,5.58,0,0,0-2.27.64A3.07,3.07,0,0,0,9.7,11a2.68,2.68,0,0,0,1.79,2.8,5.41,5.41,0,0,0,1.16.36c1.12.18,2.26.3,3.38.49a14,14,0,0,1,1.77.46.84.84,0,0,1,.56.57,1.42,1.42,0,0,1-.53,1.54,2.42,2.42,0,0,1-.8.35,9.12,9.12,0,0,1-4.08,0,1.91,1.91,0,0,1-1.51-1.59c0-.08,0-.17,0-.25a.37.37,0,0,0-.42-.36H9.73c-.3,0-.42.14-.41.44a3.51,3.51,0,0,0,2.33,3.35A9.07,9.07,0,0,0,15.07,19.68Z"/><path class="cls-2" d="M11.47,26.48a5.14,5.14,0,0,1-1.5-.73L7.4,24.22c-.08,0-.12-.15-.18-.23a1.58,1.58,0,0,1,.22-.15c.43-.2.87-.38,1.29-.59a.44.44,0,0,1,.48,0l2.24,1.34a.5.5,0,0,0,.57,0l9.43-5.45a.49.49,0,0,0,.28-.47q0-5.46,0-10.92a.47.47,0,0,0-.27-.46L12,1.85a.51.51,0,0,0-.57,0L2,7.31a.47.47,0,0,0-.26.46q0,5.46,0,10.92a.46.46,0,0,0,.26.46l2.47,1.42a2,2,0,0,0,1.41.28,1.21,1.21,0,0,0,1-1.12c0-.1,0-.21,0-.31q0-5.29,0-10.58c0-.47,0-.52.51-.52h.93a.31.31,0,0,1,.36.35c0,.06,0,.12,0,.18q0,5.38,0,10.77a4.8,4.8,0,0,1-.1.95A2.55,2.55,0,0,1,6,22.66,4.64,4.64,0,0,1,3.51,22c-.84-.46-1.66-.95-2.49-1.43a2,2,0,0,1-1-1.8q0-5.55,0-11.1A2,2,0,0,1,1.1,5.82L10.6.33a2.13,2.13,0,0,1,2.28,0l9.52,5.5a2,2,0,0,1,1.08,1.87q0,5.53,0,11.05a2,2,0,0,1-1.06,1.86l-9.64,5.56a5.34,5.34,0,0,1-.79.3Z"/><path class="cls-2" d="M15.07,19.68a9.06,9.06,0,0,1-3.42-.57,3.51,3.51,0,0,1-2.33-3.35c0-.3.11-.43.41-.44H11a.37.37,0,0,1,.42.36c0,.09,0,.17,0,.25A1.91,1.91,0,0,0,13,17.52a9.12,9.12,0,0,0,4.08,0,2.42,2.42,0,0,0,.8-.35,1.42,1.42,0,0,0,.53-1.54.84.84,0,0,0-.56-.57A14,14,0,0,0,16,14.63c-1.12-.19-2.25-.3-3.38-.49a5.41,5.41,0,0,1-1.16-.36A2.68,2.68,0,0,1,9.7,11a3.07,3.07,0,0,1,1.7-2.73,5.58,5.58,0,0,1,2.27-.64,9.61,9.61,0,0,1,3.81.33,3.58,3.58,0,0,1,2.63,3.35c0,.31-.08.44-.39.44H18.49a.39.39,0,0,1-.44-.35c0-.11-.06-.22-.09-.32a1.94,1.94,0,0,0-1.5-1.39,7.56,7.56,0,0,0-3.36,0,2.34,2.34,0,0,0-.66.28,1.26,1.26,0,0,0-.53,1.42.72.72,0,0,0,.52.5c.6.16,1.2.32,1.81.43,1.09.19,2.18.34,3.27.53a6.54,6.54,0,0,1,1.16.34,2.68,2.68,0,0,1,1.9,3,3.26,3.26,0,0,1-2,2.91A8.11,8.11,0,0,1,15.07,19.68Z"/></g></g></symbol><symbol id="performance" viewBox="0 0 21.41 14.27"><title>performance</title><g id="Layer_2" data-name="Layer 2"><g id="My_sites_tick_all_the_boxes" data-name="My sites tick all the boxes"><path d="M10.7,4a.45.45,0,0,0,.45-.45V1.82a.45.45,0,1,0-.89,0V3.6A.45.45,0,0,0,10.7,4Zm0,0" transform="translate(0 -0.03)"/><path d="M13.78,5.3h0a.45.45,0,0,0-.61.16h0L11.08,9a1.81,1.81,0,1,0,.79.41l2.06-3.49a.45.45,0,0,0-.15-.61Zm-2.33,5.91a.89.89,0,1,1-.75-1.37.88.88,0,0,1,.31.06l0,0,.12,0a.89.89,0,0,1,.28,1.23Zm0,0" transform="translate(0 -0.03)"/><path d="M17.39,10.74a.45.45,0,0,0,.45.45h1.78a.45.45,0,0,0,0-.89H17.84a.45.45,0,0,0-.45.45Zm0,0" transform="translate(0 -0.03)"/><path d="M3.57,10.29H1.78a.45.45,0,0,0,0,.89H3.57a.45.45,0,1,0,0-.89Zm0,0" transform="translate(0 -0.03)"/><path d="M6.72,2.89A.45.45,0,1,0,6,3.34l.76,1.29a.45.45,0,0,0,.77-.45Zm0,0" transform="translate(0 -0.03)"/><path d="M16.57,7.2a.45.45,0,0,0,.61.17l1.32-.74a.45.45,0,1,0-.44-.78l-1.32.74a.45.45,0,0,0-.17.61Zm0,0" transform="translate(0 -0.03)"/><path d="M4.67,6.6,3.36,5.85a.45.45,0,0,0-.44.78l1.32.74a.45.45,0,0,0,.44-.78Zm0,0" transform="translate(0 -0.03)"/><path d="M15.3,2.73h0a.45.45,0,0,0-.61.16h0l-.76,1.29a.45.45,0,1,0,.77.45l.76-1.29a.45.45,0,0,0-.16-.61Zm0,0" transform="translate(0 -0.03)"/><path d="M18.25,3.08A10.75,10.75,0,0,0,0,10.72v2.39a1.2,1.2,0,0,0,1.2,1.19h19a1.2,1.2,0,0,0,1.2-1.19v-2.6a10.3,10.3,0,0,0-3.16-7.43Zm2.27,10a.31.31,0,0,1-.31.3H1.2a.31.31,0,0,1-.31-.3V10.72a9.86,9.86,0,0,1,16.74-7,9.42,9.42,0,0,1,2.89,6.79v2.6Zm0,0" transform="translate(0 -0.03)"/></g></g></symbol><symbol id="photoshop" viewBox="0 0 23.58 23.58"><title>photoshop</title><g id="Layer_2" data-name="Layer 2"><g id="About_me" data-name="About me"><path class="cls-1" d="M15.62,16a5.2,5.2,0,0,1-2.29-.65l-.47,1.91a6,6,0,0,0,2.77.6c2.45,0,3.71-1.17,3.71-2.77,0-1.26-.7-2.08-2.33-2.64-1-.37-1.38-.58-1.38-1s.37-.7,1-.7a4.2,4.2,0,0,1,1.86.49L19,9.38a5.73,5.73,0,0,0-2.42-.49c-2.12,0-3.49,1.21-3.49,2.8,0,1,.66,2,2.44,2.58,1,.34,1.26.54,1.26,1S16.42,16,15.62,16Z"/><path class="cls-1" d="M6.89,13.43a7,7,0,0,0,.91,0,5.46,5.46,0,0,0,3.83-1.24,3.74,3.74,0,0,0,1.09-2.8A3.42,3.42,0,0,0,11.45,6.7a5.6,5.6,0,0,0-3.6-.95A21.89,21.89,0,0,0,4.25,6V17.65H6.89V13.43Zm0-5.55A4.26,4.26,0,0,1,8,7.77c1.33,0,2.08.65,2.09,1.73s-.88,1.93-2.3,1.93a4.31,4.31,0,0,1-.89-.07V7.88Z"/><path class="cls-1" d="M0,0V23.58H23.58V0ZM22.12,22.12H1.46V1.46H22.12Z"/></g></g></symbol><symbol id="php" viewBox="0 0 65.43 31.69"><title>php</title><g id="Layer_2" data-name="Layer 2"><g id="Layer_1-2" data-name="Layer 1"><path class="cls-1" d="M32.72,0c1.45,0,2.9.06,4.34.17,1.15.09,2.3.18,3.45.31,1,.11,1.93.27,2.89.42a49.09,49.09,0,0,1,5,1.05c1.25.33,2.48.71,3.7,1.14a37.93,37.93,0,0,1,4.06,1.7A28,28,0,0,1,58.7,6.25a22.43,22.43,0,0,1,2.53,1.85,15.87,15.87,0,0,1,2,2.06,8.3,8.3,0,0,1,.55.74,13,13,0,0,1,.94,1.71A8.45,8.45,0,0,1,65.37,15a5.89,5.89,0,0,1,0,1.94A9.57,9.57,0,0,1,65,18.51,9.26,9.26,0,0,1,63.66,21l-.55.72A15,15,0,0,1,60.73,24,22.78,22.78,0,0,1,58,25.91a31.82,31.82,0,0,1-3.1,1.59,41.23,41.23,0,0,1-4,1.52,41.94,41.94,0,0,1-4.27,1.17c-1.24.27-2.48.51-3.73.72-.91.15-1.82.26-2.73.36s-2,.2-3,.27c-.73.06-1.46.08-2.19.11-1.59.06-3.17.05-4.76,0-.76,0-1.51-.08-2.27-.13s-1.34-.1-2-.17-1.46-.15-2.18-.26c-1.14-.17-2.28-.35-3.41-.57s-2-.43-3-.69a42.6,42.6,0,0,1-5.14-1.64c-1-.41-2-.85-3-1.35a28.06,28.06,0,0,1-3-1.7c-.45-.3-.87-.62-1.3-.94a16.72,16.72,0,0,1-2-1.77c-.2-.21-.4-.43-.58-.66A12.28,12.28,0,0,1,.89,19.51,10.19,10.19,0,0,1,.31,18a7.47,7.47,0,0,1-.1-3.86,8.59,8.59,0,0,1,1.1-2.67A13.39,13.39,0,0,1,2.3,10,12.9,12.9,0,0,1,4.14,8.16c.4-.33.8-.66,1.22-1A20.26,20.26,0,0,1,8,5.51c.57-.31,1.16-.62,1.75-.91A34.87,34.87,0,0,1,13.61,3a47.15,47.15,0,0,1,4.9-1.42C20,1.26,21.42,1,22.89.76,24,.61,25.13.45,26.25.34S28.19.17,29.17.13C30.35.07,31.54,0,32.72,0ZM12.55,8.3c-.1.47-.21.91-.3,1.35q-.27,1.3-.54,2.6l-.58,2.86-.53,2.6c-.18.88-.36,1.77-.54,2.65l-.56,2.77c-.1.47-.19.94-.28,1.41l-.16.85h3.88l.92-4.53h3.39a15.66,15.66,0,0,0,2.55-.2,7.17,7.17,0,0,0,2.47-.87A7.9,7.9,0,0,0,24.41,18a6.85,6.85,0,0,0,1.3-2.41A10.31,10.31,0,0,0,26,14.3a6,6,0,0,0-.09-2.58,4.18,4.18,0,0,0-1-1.77,5,5,0,0,0-2.29-1.32A9.76,9.76,0,0,0,20,8.3H12.55ZM44.37,20.87h2.72a19.46,19.46,0,0,0,2.9-.15,7.9,7.9,0,0,0,2-.51,7.79,7.79,0,0,0,4.14-4.34,7.71,7.71,0,0,0,.42-3.6A4.09,4.09,0,0,0,55.43,10a4.87,4.87,0,0,0-2.17-1.29,9.31,9.31,0,0,0-2.79-.36H43.05c-.07.27-.13.51-.19.76l-.54,2.65-.54,2.67c-.18.9-.37,1.8-.55,2.7l-.53,2.58c-.2,1-.4,2-.6,3-.11.54-.21,1.09-.32,1.62-.08.38-.16.76-.24,1.16h3.88c0-.11.07-.21.09-.32q.33-1.62.65-3.25Zm-13.19-9.8h3.56a3.17,3.17,0,0,1,1.05.19,1,1,0,0,1,.73.94,2.84,2.84,0,0,1,0,.49c-.05.37-.13.73-.2,1.1-.18.88-.36,1.77-.54,2.65L35.06,20c-.06.28-.11.57-.16.87h3.9s0-.09,0-.14c.1-.47.2-.94.3-1.4.19-.9.36-1.8.55-2.69.25-1.26.51-2.52.76-3.78A5.41,5.41,0,0,0,40.51,11,2.45,2.45,0,0,0,40.2,10a3,3,0,0,0-1.67-1.26,8.53,8.53,0,0,0-2.64-.42c-1.3,0-2.59,0-3.88,0h-.28c.31-1.53.62-3,.93-4.54H28.82c-.06.21-.11.41-.15.61-.19.92-.37,1.85-.56,2.77s-.35,1.68-.52,2.53-.39,1.94-.59,2.91-.35,1.7-.52,2.55c-.22,1.08-.43,2.16-.66,3.25-.14.69-.29,1.38-.43,2.07,0,.13,0,.27-.07.41h3.84c0-.16.1-.31.13-.46.18-.9.36-1.8.55-2.69s.38-1.83.56-2.74L31,12C31.06,11.66,31.12,11.37,31.17,11.07Z"/><path class="cls-1" d="M14.42,18.17c.49-2.4,1-4.77,1.46-7.15l.19,0c1,0,2.06,0,3.07,0a4.58,4.58,0,0,1,1.83.37,1.66,1.66,0,0,1,1,1.29,5.15,5.15,0,0,1-.07,1.79,5.9,5.9,0,0,1-.43,1.39,3.56,3.56,0,0,1-1.19,1.51,4.05,4.05,0,0,1-1.45.61,8.11,8.11,0,0,1-1.79.2h-2.6Z"/><path class="cls-1" d="M46.38,11h3.2a5.29,5.29,0,0,1,1.58.25,1.89,1.89,0,0,1,1.09.8,1.93,1.93,0,0,1,.26,1,5.57,5.57,0,0,1-.33,2.23c-.06.15-.1.31-.16.46a3.63,3.63,0,0,1-1.1,1.55,3.89,3.89,0,0,1-1.63.73,7.32,7.32,0,0,1-1.57.19c-.88,0-1.76,0-2.63,0h-.17C45.4,15.78,45.88,13.4,46.38,11Z"/></g></g></symbol><symbol id="react2" viewBox="0 0 30.32 27"><title>react2</title><g id="Layer_2" data-name="Layer 2"><g id="Layer_1-2" data-name="Layer 1"><path class="cls-1" d="M24.17,18.54l.84-.29a10.78,10.78,0,0,0,4.34-2.61,2.87,2.87,0,0,0,0-4.32A9.5,9.5,0,0,0,26,9.16c-.65-.27-1.32-.49-2-.74.07-.34.13-.63.18-.93a10.72,10.72,0,0,0-.08-5.25A2.79,2.79,0,0,0,20.31.18a15.49,15.49,0,0,0-3.17,1.56,18.24,18.24,0,0,0-2,1.58l-.54-.47A11.7,11.7,0,0,0,10.2.23C8.09-.36,6.6.42,6.14,2.54A15.9,15.9,0,0,0,6,6.14a16.24,16.24,0,0,0,.34,2.25c-.87.34-1.71.63-2.51,1A7.81,7.81,0,0,0,.7,11.65a2.77,2.77,0,0,0,0,3.68,8.31,8.31,0,0,0,3.25,2.4c.76.35,1.55.63,2.37,1-.08.42-.17.84-.24,1.26A9.69,9.69,0,0,0,6.28,25a2.61,2.61,0,0,0,3.06,1.92,9.79,9.79,0,0,0,3-1.07,28.33,28.33,0,0,0,2.93-2.09l.62.56a10.66,10.66,0,0,0,4.45,2.55,2.86,2.86,0,0,0,3.71-2,6.74,6.74,0,0,0,.38-2.15C24.44,21.34,24.28,20,24.17,18.54Z"/><path class="cls-2" d="M24.17,18.54c.11,1.45.27,2.8.28,4.16a6.74,6.74,0,0,1-.38,2.15,2.86,2.86,0,0,1-3.71,2,10.66,10.66,0,0,1-4.45-2.55l-.62-.56a28.33,28.33,0,0,1-2.93,2.09,9.79,9.79,0,0,1-3,1.07A2.61,2.61,0,0,1,6.28,25,9.69,9.69,0,0,1,6.08,20c.07-.42.16-.84.24-1.26-.82-.33-1.61-.61-2.37-1A8.31,8.31,0,0,1,.7,15.33a2.77,2.77,0,0,1,0-3.68A7.81,7.81,0,0,1,3.8,9.38c.8-.36,1.64-.65,2.51-1A16.24,16.24,0,0,1,6,6.14a15.9,15.9,0,0,1,.17-3.59C6.6.42,8.09-.36,10.2.23a11.7,11.7,0,0,1,4.42,2.63l.54.47a18.24,18.24,0,0,1,2-1.58A15.49,15.49,0,0,1,20.31.18a2.79,2.79,0,0,1,3.77,2.05,10.72,10.72,0,0,1,.08,5.25c-.05.3-.12.59-.18.93.67.25,1.34.47,2,.74a9.5,9.5,0,0,1,3.35,2.16,2.87,2.87,0,0,1,0,4.32A10.78,10.78,0,0,1,25,18.25ZM12.2,18a.88.88,0,0,0,.62.34c.77,0,1.55,0,2.33,0s1.55,0,2.33,0a1,1,0,0,0,.7-.41q1.21-2,2.32-4a.92.92,0,0,0,0-.76q-1.11-2-2.3-4a1,1,0,0,0-.7-.43c-1.55,0-3.1,0-4.66,0a.93.93,0,0,0-.66.39q-1.2,2-2.32,4a.93.93,0,0,0,0,.77M6.64,17.37c.5-1.26,1-2.45,1.45-3.65a.55.55,0,0,0,0-.37c-.47-1.21-1-2.42-1.47-3.68-.63.23-1.24.43-1.84.67a7.6,7.6,0,0,0-3,2,1.54,1.54,0,0,0,0,2.31A9.77,9.77,0,0,0,6.64,17.37Zm7.63,5.45c-.83-1.05-1.6-2-2.38-3a.66.66,0,0,0-.35-.25C10.25,19.37,9,19.21,7.59,19a10.43,10.43,0,0,0-.18,5.3,1.61,1.61,0,0,0,2.21,1.28A10.35,10.35,0,0,0,14.27,22.82ZM22.79,19l-3.85.56a.65.65,0,0,0-.39.19c-.8,1-1.57,2-2.39,3.1a10.09,10.09,0,0,0,4.69,2.84,1.48,1.48,0,0,0,1.92-1A9.66,9.66,0,0,0,22.79,19ZM14.25,4.2a16.13,16.13,0,0,0-2-1.5,15,15,0,0,0-3-1.31c-.91-.27-1.48.13-1.79,1a6.17,6.17,0,0,0-.32,1.51A11.47,11.47,0,0,0,7.64,8c1.3-.18,2.51-.35,3.72-.54a.84.84,0,0,0,.48-.27C12.63,6.27,13.39,5.29,14.25,4.2ZM22.7,8.06c.08-.36.18-.71.23-1.06a9.05,9.05,0,0,0-.14-4.53,1.47,1.47,0,0,0-1.84-1.12,10,10,0,0,0-4.83,2.9c.82,1,1.58,2,2.36,3a.83.83,0,0,0,.48.27C20.17,7.7,21.39,7.87,22.7,8.06Zm1,9.24a10.3,10.3,0,0,0,4.69-2.56,1.6,1.6,0,0,0,0-2.55,10.55,10.55,0,0,0-4.71-2.47c-.49,1.22-1,2.37-1.42,3.53a.63.63,0,0,0,0,.42C22.71,14.87,23.21,16.06,23.73,17.3ZM21.41,15,19.6,18.16l2.84-.5ZM10.74,18.18,8.92,15.05l-1,2.68Zm8.87-9.31L21.4,12l1-2.63Zm-4.39,13L17,19.72H13.4ZM8,9.38l1,2.59L10.7,8.88l-1.92.31C8.53,9.24,8.29,9.3,8,9.38ZM13.4,7.28h3.53l-1.77-2.1Z"/><path class="cls-1" d="M15.15,10.78a2.7,2.7,0,0,0,0,5.4,2.7,2.7,0,1,0,0-5.4Z"/><path class="cls-1" d="M14.27,22.82a10.35,10.35,0,0,1-4.65,2.79,1.61,1.61,0,0,1-2.21-1.28A10.43,10.43,0,0,1,7.59,19c1.36.18,2.65.35,3.95.53a.66.66,0,0,1,.35.25C12.67,20.79,13.44,21.77,14.27,22.82Z"/><path class="cls-1" d="M22.79,19a9.66,9.66,0,0,1,0,5.69,1.48,1.48,0,0,1-1.92,1,10.09,10.09,0,0,1-4.69-2.84c.82-1.07,1.6-2.09,2.39-3.1a.65.65,0,0,1,.39-.19Z"/><path class="cls-1" d="M12.29,2.7a16.13,16.13,0,0,1,2,1.5c-.85,1.09-1.62,2.07-2.4,3a.84.84,0,0,1-.48.27c-1.21.19-2.42.35-3.72.54a11.47,11.47,0,0,1-.45-4.1,6.17,6.17,0,0,1,.32-1.51c.32-.91.88-1.31,1.79-1"/><path class="cls-1" d="M23.73,17.3c-.52-1.25-1-2.43-1.5-3.63a.63.63,0,0,1,0-.42c.46-1.16.93-2.31,1.42-3.53a10.55,10.55,0,0,1,4.71,2.47,1.6,1.6,0,0,1,0,2.55A10.3,10.3,0,0,1,23.73,17.3Z"/><path class="cls-1" d="M21.41,15l1,2.67-2.84.5Z"/><path class="cls-1" d="M10.74,18.18l-2.8-.45,1-2.68Z"/><path class="cls-1" d="M19.61,8.87l2.76.48L21.4,12Z"/><path class="cls-1" d="M10.7,8.88,8.93,12,8,9.38c.33-.07.57-.14.82-.18"/><path class="cls-2" d="M15.13,10.78a2.7,2.7,0,1,1-2.67,2.74A2.7,2.7,0,0,1,15.13,10.78Z"/></g></g></symbol><symbol id="react3" viewBox="0 0 30.32 27"><title>react3</title><g id="Layer_2" data-name="Layer 2"><g id="Layer_1-2" data-name="Layer 1"><path class="cls-1" d="M24.17,18.54l.84-.29a10.78,10.78,0,0,0,4.34-2.61,2.87,2.87,0,0,0,0-4.32A9.5,9.5,0,0,0,26,9.16c-.65-.27-1.32-.49-2-.74.07-.34.13-.63.18-.93a10.72,10.72,0,0,0-.08-5.25A2.79,2.79,0,0,0,20.31.18a15.49,15.49,0,0,0-3.17,1.56,18.24,18.24,0,0,0-2,1.58l-.54-.47A11.7,11.7,0,0,0,10.2.23C8.09-.36,6.6.42,6.14,2.54A15.9,15.9,0,0,0,6,6.14a16.24,16.24,0,0,0,.34,2.25c-.87.34-1.71.63-2.51,1A7.81,7.81,0,0,0,.7,11.65a2.77,2.77,0,0,0,0,3.68,8.31,8.31,0,0,0,3.25,2.4c.76.35,1.55.63,2.37,1-.08.42-.17.84-.24,1.26A9.69,9.69,0,0,0,6.28,25a2.61,2.61,0,0,0,3.06,1.92,9.79,9.79,0,0,0,3-1.07,28.33,28.33,0,0,0,2.93-2.09l.62.56a10.66,10.66,0,0,0,4.45,2.55,2.86,2.86,0,0,0,3.71-2,6.74,6.74,0,0,0,.38-2.15C24.44,21.34,24.28,20,24.17,18.54Z"/><path class="cls-2" d="M24.17,18.54c.11,1.45.27,2.8.28,4.16a6.74,6.74,0,0,1-.38,2.15,2.86,2.86,0,0,1-3.71,2,10.66,10.66,0,0,1-4.45-2.55l-.62-.56a28.33,28.33,0,0,1-2.93,2.09,9.79,9.79,0,0,1-3,1.07A2.61,2.61,0,0,1,6.28,25,9.69,9.69,0,0,1,6.08,20c.07-.42.16-.84.24-1.26-.82-.33-1.61-.61-2.37-1A8.31,8.31,0,0,1,.7,15.33a2.77,2.77,0,0,1,0-3.68A7.81,7.81,0,0,1,3.8,9.38c.8-.36,1.64-.65,2.51-1A16.24,16.24,0,0,1,6,6.14a15.9,15.9,0,0,1,.17-3.59C6.6.42,8.09-.36,10.2.23a11.7,11.7,0,0,1,4.42,2.63l.54.47a18.24,18.24,0,0,1,2-1.58A15.49,15.49,0,0,1,20.31.18a2.79,2.79,0,0,1,3.77,2.05,10.72,10.72,0,0,1,.08,5.25c-.05.3-.12.59-.18.93.67.25,1.34.47,2,.74a9.5,9.5,0,0,1,3.35,2.16,2.87,2.87,0,0,1,0,4.32A10.78,10.78,0,0,1,25,18.25Z"/><path class="cls-3" d="M12.2,18a.88.88,0,0,0,.62.34c.77,0,1.55,0,2.33,0s1.55,0,2.33,0a1,1,0,0,0,.7-.41q1.21-2,2.32-4a.92.92,0,0,0,0-.76q-1.11-2-2.3-4a1,1,0,0,0-.7-.43c-1.55,0-3.1,0-4.66,0a.93.93,0,0,0-.66.39q-1.2,2-2.32,4a.93.93,0,0,0,0,.77"/><path class="cls-3" d="M6.64,17.37c.5-1.26,1-2.45,1.45-3.65a.55.55,0,0,0,0-.37c-.47-1.21-1-2.42-1.47-3.68-.63.23-1.24.43-1.84.67a7.6,7.6,0,0,0-3,2,1.54,1.54,0,0,0,0,2.31A9.77,9.77,0,0,0,6.64,17.37Z"/><path class="cls-3" d="M14.27,22.82c-.83-1.05-1.6-2-2.38-3a.66.66,0,0,0-.35-.25C10.25,19.37,9,19.21,7.59,19a10.43,10.43,0,0,0-.18,5.3,1.61,1.61,0,0,0,2.21,1.28A10.35,10.35,0,0,0,14.27,22.82Z"/><path class="cls-3" d="M22.79,19l-3.85.56a.65.65,0,0,0-.39.19c-.8,1-1.57,2-2.39,3.1a10.09,10.09,0,0,0,4.69,2.84,1.48,1.48,0,0,0,1.92-1A9.66,9.66,0,0,0,22.79,19Z"/><path class="cls-1" d="M14.25,4.2a16.13,16.13,0,0,0-2-1.5,15,15,0,0,0-3-1.31c-.91-.27-1.48.13-1.79,1a6.17,6.17,0,0,0-.32,1.51A11.47,11.47,0,0,0,7.64,8c1.3-.18,2.51-.35,3.72-.54a.84.84,0,0,0,.48-.27C12.63,6.27,13.39,5.29,14.25,4.2Z"/><path class="cls-3" d="M22.7,8.06c.08-.36.18-.71.23-1.06a9.05,9.05,0,0,0-.14-4.53,1.47,1.47,0,0,0-1.84-1.12,10,10,0,0,0-4.83,2.9c.82,1,1.58,2,2.36,3a.83.83,0,0,0,.48.27C20.17,7.7,21.39,7.87,22.7,8.06Z"/><path class="cls-3" d="M23.73,17.3a10.3,10.3,0,0,0,4.69-2.56,1.6,1.6,0,0,0,0-2.55,10.55,10.55,0,0,0-4.71-2.47c-.49,1.22-1,2.37-1.42,3.53a.63.63,0,0,0,0,.42C22.71,14.87,23.21,16.06,23.73,17.3Z"/><path class="cls-2" d="M21.41,15,19.6,18.16l2.84-.5Z"/><path class="cls-3" d="M10.74,18.18,8.92,15.05l-1,2.68Z"/><path class="cls-3" d="M19.61,8.87,21.4,12l1-2.63Z"/><path class="cls-3" d="M15.21,21.88,17,19.72H13.4Z"/><path class="cls-3" d="M8,9.38l1,2.59L10.7,8.88l-1.92.31C8.53,9.24,8.29,9.3,8,9.38Z"/><path class="cls-3" d="M13.4,7.28h3.53l-1.77-2.1Z"/><path class="cls-1" d="M15.15,10.78a2.7,2.7,0,0,0,0,5.4,2.7,2.7,0,1,0,0-5.4Z"/><path class="cls-1" d="M14.27,22.82a10.35,10.35,0,0,1-4.65,2.79,1.61,1.61,0,0,1-2.21-1.28A10.43,10.43,0,0,1,7.59,19c1.36.18,2.65.35,3.95.53a.66.66,0,0,1,.35.25C12.67,20.79,13.44,21.77,14.27,22.82Z"/><path class="cls-1" d="M22.79,19a9.66,9.66,0,0,1,0,5.69,1.48,1.48,0,0,1-1.92,1,10.09,10.09,0,0,1-4.69-2.84c.82-1.07,1.6-2.09,2.39-3.1a.65.65,0,0,1,.39-.19Z"/><path class="cls-3" d="M12.29,2.7a16.13,16.13,0,0,1,2,1.5c-.85,1.09-1.62,2.07-2.4,3a.84.84,0,0,1-.48.27c-1.21.19-2.42.35-3.72.54a11.47,11.47,0,0,1-.45-4.1,6.17,6.17,0,0,1,.32-1.51c.32-.91.88-1.31,1.79-1"/><path class="cls-1" d="M23.73,17.3c-.52-1.25-1-2.43-1.5-3.63a.63.63,0,0,1,0-.42c.46-1.16.93-2.31,1.42-3.53a10.55,10.55,0,0,1,4.71,2.47,1.6,1.6,0,0,1,0,2.55A10.3,10.3,0,0,1,23.73,17.3Z"/><path class="cls-3" d="M21.41,15l1,2.67-2.84.5Z"/><path class="cls-1" d="M10.74,18.18l-2.8-.45,1-2.68Z"/><path class="cls-1" d="M19.61,8.87l2.76.48L21.4,12Z"/><path class="cls-1" d="M10.7,8.88,8.93,12,8,9.38c.33-.07.57-.14.82-.18"/><path class="cls-2" d="M15.13,10.78a2.7,2.7,0,1,1-2.67,2.74A2.7,2.7,0,0,1,15.13,10.78Z"/></g></g></symbol><symbol id="reactjs" viewBox="0 0 30.32 27"><title>reactjs</title><g id="Layer_2" data-name="Layer 2"><g id="Layer_1-2" data-name="Layer 1"><path class="cls-1" d="M24.17,18.54l.84-.29a10.78,10.78,0,0,0,4.34-2.61,2.87,2.87,0,0,0,0-4.32A9.5,9.5,0,0,0,26,9.16c-.65-.27-1.32-.49-2-.74.07-.34.13-.63.18-.93a10.72,10.72,0,0,0-.08-5.25A2.79,2.79,0,0,0,20.31.18a15.49,15.49,0,0,0-3.17,1.56,18.24,18.24,0,0,0-2,1.58l-.54-.47A11.7,11.7,0,0,0,10.2.23C8.09-.36,6.6.42,6.14,2.54A15.9,15.9,0,0,0,6,6.14a16.24,16.24,0,0,0,.34,2.25c-.87.34-1.71.63-2.51,1A7.81,7.81,0,0,0,.7,11.65a2.77,2.77,0,0,0,0,3.68,8.31,8.31,0,0,0,3.25,2.4c.76.35,1.55.63,2.37,1-.08.42-.17.84-.24,1.26A9.69,9.69,0,0,0,6.28,25a2.61,2.61,0,0,0,3.06,1.92,9.79,9.79,0,0,0,3-1.07,28.33,28.33,0,0,0,2.93-2.09l.62.56a10.66,10.66,0,0,0,4.45,2.55,2.86,2.86,0,0,0,3.71-2,6.74,6.74,0,0,0,.38-2.15C24.44,21.34,24.28,20,24.17,18.54Z"/><path class="cls-2" d="M24.17,18.54c.11,1.45.27,2.8.28,4.16a6.74,6.74,0,0,1-.38,2.15,2.86,2.86,0,0,1-3.71,2,10.66,10.66,0,0,1-4.45-2.55l-.62-.56a28.33,28.33,0,0,1-2.93,2.09,9.79,9.79,0,0,1-3,1.07A2.61,2.61,0,0,1,6.28,25,9.69,9.69,0,0,1,6.08,20c.07-.42.16-.84.24-1.26-.82-.33-1.61-.61-2.37-1A8.31,8.31,0,0,1,.7,15.33a2.77,2.77,0,0,1,0-3.68A7.81,7.81,0,0,1,3.8,9.38c.8-.36,1.64-.65,2.51-1A16.24,16.24,0,0,1,6,6.14a15.9,15.9,0,0,1,.17-3.59C6.6.42,8.09-.36,10.2.23a11.7,11.7,0,0,1,4.42,2.63l.54.47a18.24,18.24,0,0,1,2-1.58A15.49,15.49,0,0,1,20.31.18a2.79,2.79,0,0,1,3.77,2.05,10.72,10.72,0,0,1,.08,5.25c-.05.3-.12.59-.18.93.67.25,1.34.47,2,.74a9.5,9.5,0,0,1,3.35,2.16,2.87,2.87,0,0,1,0,4.32A10.78,10.78,0,0,1,25,18.25ZM12.2,18a.88.88,0,0,0,.62.34c.77,0,1.55,0,2.33,0s1.55,0,2.33,0a1,1,0,0,0,.7-.41q1.21-2,2.32-4a.92.92,0,0,0,0-.76q-1.11-2-2.3-4a1,1,0,0,0-.7-.43c-1.55,0-3.1,0-4.66,0a.93.93,0,0,0-.66.39q-1.2,2-2.32,4a.93.93,0,0,0,0,.77M6.64,17.37c.5-1.26,1-2.45,1.45-3.65a.55.55,0,0,0,0-.37c-.47-1.21-1-2.42-1.47-3.68-.63.23-1.24.43-1.84.67a7.6,7.6,0,0,0-3,2,1.54,1.54,0,0,0,0,2.31A9.77,9.77,0,0,0,6.64,17.37Zm7.63,5.45c-.83-1.05-1.6-2-2.38-3a.66.66,0,0,0-.35-.25C10.25,19.37,9,19.21,7.59,19a10.43,10.43,0,0,0-.18,5.3,1.61,1.61,0,0,0,2.21,1.28A10.35,10.35,0,0,0,14.27,22.82ZM22.79,19l-3.85.56a.65.65,0,0,0-.39.19c-.8,1-1.57,2-2.39,3.1a10.09,10.09,0,0,0,4.69,2.84,1.48,1.48,0,0,0,1.92-1A9.66,9.66,0,0,0,22.79,19ZM14.25,4.2a16.13,16.13,0,0,0-2-1.5,15,15,0,0,0-3-1.31c-.91-.27-1.48.13-1.79,1a6.17,6.17,0,0,0-.32,1.51A11.47,11.47,0,0,0,7.64,8c1.3-.18,2.51-.35,3.72-.54a.84.84,0,0,0,.48-.27C12.63,6.27,13.39,5.29,14.25,4.2ZM22.7,8.06c.08-.36.18-.71.23-1.06a9.05,9.05,0,0,0-.14-4.53,1.47,1.47,0,0,0-1.84-1.12,10,10,0,0,0-4.83,2.9c.82,1,1.58,2,2.36,3a.83.83,0,0,0,.48.27C20.17,7.7,21.39,7.87,22.7,8.06Zm1,9.24a10.3,10.3,0,0,0,4.69-2.56,1.6,1.6,0,0,0,0-2.55,10.55,10.55,0,0,0-4.71-2.47c-.49,1.22-1,2.37-1.42,3.53a.63.63,0,0,0,0,.42C22.71,14.87,23.21,16.06,23.73,17.3ZM21.41,15,19.6,18.16l2.84-.5ZM10.74,18.18,8.92,15.05l-1,2.68Zm8.87-9.31L21.4,12l1-2.63Zm-4.39,13L17,19.72H13.4ZM8,9.38l1,2.59L10.7,8.88l-1.92.31C8.53,9.24,8.29,9.3,8,9.38ZM13.4,7.28h3.53l-1.77-2.1Z"/><path class="cls-1" d="M15.15,10.78a2.7,2.7,0,0,0,0,5.4,2.7,2.7,0,1,0,0-5.4Z"/><path class="cls-1" d="M14.27,22.82a10.35,10.35,0,0,1-4.65,2.79,1.61,1.61,0,0,1-2.21-1.28A10.43,10.43,0,0,1,7.59,19c1.36.18,2.65.35,3.95.53a.66.66,0,0,1,.35.25C12.67,20.79,13.44,21.77,14.27,22.82Z"/><path class="cls-1" d="M22.79,19a9.66,9.66,0,0,1,0,5.69,1.48,1.48,0,0,1-1.92,1,10.09,10.09,0,0,1-4.69-2.84c.82-1.07,1.6-2.09,2.39-3.1a.65.65,0,0,1,.39-.19Z"/><path class="cls-1" d="M12.29,2.7a16.13,16.13,0,0,1,2,1.5c-.85,1.09-1.62,2.07-2.4,3a.84.84,0,0,1-.48.27c-1.21.19-2.42.35-3.72.54a11.47,11.47,0,0,1-.45-4.1,6.17,6.17,0,0,1,.32-1.51c.32-.91.88-1.31,1.79-1"/><path class="cls-1" d="M23.73,17.3c-.52-1.25-1-2.43-1.5-3.63a.63.63,0,0,1,0-.42c.46-1.16.93-2.31,1.42-3.53a10.55,10.55,0,0,1,4.71,2.47,1.6,1.6,0,0,1,0,2.55A10.3,10.3,0,0,1,23.73,17.3Z"/><path class="cls-1" d="M21.41,15l1,2.67-2.84.5Z"/><path class="cls-1" d="M10.74,18.18l-2.8-.45,1-2.68Z"/><path class="cls-1" d="M19.61,8.87l2.76.48L21.4,12Z"/><path class="cls-1" d="M10.7,8.88,8.93,12,8,9.38c.33-.07.57-.14.82-.18"/><path class="cls-2" d="M15.13,10.78a2.7,2.7,0,1,1-2.67,2.74A2.7,2.7,0,0,1,15.13,10.78Z"/></g></g></symbol><symbol id="ruby-on-rails" viewBox="0 0 23.76 15.71"><title>ruby-on-rails</title><g id="Layer_2" data-name="Layer 2"><g id="About_me" data-name="About me"><path class="cls-1" d="M23.76,3c-.7-.35-1.35-.7-2.06-1a12.87,12.87,0,0,0-8-.76,11.68,11.68,0,0,0-5.5,2.72A19.41,19.41,0,0,0,3.92,9.63a11.5,11.5,0,0,0-1.39,5.81c0,.09,0,.18,0,.27H14.12l-.05-.12c-.46-1-1-2-1.37-3.07a7.75,7.75,0,0,1-.32-4.91C13,5.47,14.81,3.91,17.8,3a7.38,7.38,0,0,1,3.55-.21,5.37,5.37,0,0,1,1.84.72ZM0,13.25l2.14.17.39-1.54L.26,11.77ZM1.79,8.09l2.05.44.61-1.16-2-.53ZM13.7,14.28l2.32.09c-.27-.38-.51-.72-.76-1.05a.31.31,0,0,0-.2-.1H13.27ZM6.31,3l-1.22.92,1.57.71,1.18-.95Zm8.18,8.18c0-.33,0-.6-.08-.88a.18.18,0,0,0-.11-.13l-1.57-.56c0,.35-.07.65-.08,1,0,0,.06.1.12.12ZM12.23,1.22c-.33-.25-.62-.48-.92-.7a.39.39,0,0,0-.25-.05L9.74.93l1.05.86Zm.55,6.43,1.49.86c.11-.32.21-.59.3-.87a.14.14,0,0,0-.06-.16l-1.17-.6ZM16.89.81a5.77,5.77,0,0,0-.14-.64A.3.3,0,0,0,16.54,0C16,0,15.43,0,14.85,0c.07.23.14.48.22.73a.2.2,0,0,0,.15.07ZM14.2,5l1.25.93c.17-.2.31-.36.44-.53a.14.14,0,0,0,0-.16c-.25-.27-.52-.54-.79-.81l-.81.49Zm3.24-.79c.86-.35.94-.48.62-.9l-1.17.2ZM20.89.87a1.32,1.32,0,0,0,0,.32c0,.09,0,.22.11.25.34.15.71.27,1.09.4l.26-.27Zm.89,2.44-1.13-.17v.44l1.13.09Z"/><path class="cls-1" d="M23.76,3l-.56.57a5.37,5.37,0,0,0-1.84-.72A7.38,7.38,0,0,0,17.8,3c-3,.9-4.79,2.46-5.43,4.6a7.75,7.75,0,0,0,.32,4.91c.37,1,.91,2,1.37,3.07l.05.12H2.56c0-.09,0-.18,0-.27A11.5,11.5,0,0,1,3.92,9.63,19.41,19.41,0,0,1,8.19,3.92a11.68,11.68,0,0,1,5.5-2.72,12.87,12.87,0,0,1,8,.76C22.4,2.25,23.06,2.61,23.76,3Z"/><path class="cls-1" d="M0,13.25l.26-1.48,2.27.12-.39,1.54Z"/><path class="cls-1" d="M1.79,8.09l.65-1.24,2,.53L3.84,8.53Z"/><path class="cls-1" d="M13.7,14.28l-.44-1.06h1.79a.31.31,0,0,1,.2.1c.25.33.49.67.76,1.05Z"/><path class="cls-1" d="M6.31,3l1.53.68-1.18.95L5.09,3.88Z"/><path class="cls-1" d="M14.5,11.13l-1.71-.5c-.06,0-.13-.08-.12-.12,0-.31.05-.61.08-1l1.57.56a.18.18,0,0,1,.11.13C14.45,10.53,14.47,10.81,14.5,11.13Z"/><path class="cls-1" d="M12.23,1.22l-1.44.56L9.74.93,11.06.47a.39.39,0,0,1,.25.05C11.62.74,11.91,1,12.23,1.22Z"/><path class="cls-1" d="M12.79,7.65l.57-.77,1.17.6a.14.14,0,0,1,.06.16c-.09.28-.19.55-.3.87Z"/><path class="cls-1" d="M16.89.81H15.22a.2.2,0,0,1-.15-.07C15,.48,14.92.23,14.85,0c.58,0,1.13,0,1.69,0a.3.3,0,0,1,.21.16A5.77,5.77,0,0,1,16.89.81Z"/><path class="cls-1" d="M14.2,5l.1-.08.81-.49c.27.28.54.54.79.81a.14.14,0,0,1,0,.16c-.13.17-.28.33-.44.53Z"/><path class="cls-1" d="M17.43,4.21l-.55-.69,1.17-.2C18.38,3.74,18.29,3.86,17.43,4.21Z"/><path class="cls-1" d="M20.89.87l1.43.7-.26.27c-.38-.14-.75-.26-1.09-.4-.09,0-.1-.17-.11-.25A1.32,1.32,0,0,1,20.89.87Z"/><path class="cls-1" d="M21.78,3.31v.36l-1.13-.09V3.14Z"/></g></g></symbol><symbol id="sass" viewBox="0 0 29.99 22.49"><title>sass</title><g id="Layer_2" data-name="Layer 2"><g id="About_me" data-name="About me"><path class="cls-1" d="M0,8.73C.74,6,2.77,4.31,5,2.88A20.48,20.48,0,0,1,10.29.5,10.14,10.14,0,0,1,16.13.37a3.77,3.77,0,0,1,2.36,1.69,3.69,3.69,0,0,1,.09,3.29,7.45,7.45,0,0,1-4.71,4.4,9.64,9.64,0,0,1-4.66.52,3.08,3.08,0,0,1-2-1.14,2.25,2.25,0,0,1-.29-.59A.23.23,0,0,1,7,8.33a.22.22,0,0,1,.21,0c1.18,1.22,2.64,1.09,4.1.79a8.44,8.44,0,0,0,4.76-2.63,4.24,4.24,0,0,0,1.16-2.2,1.77,1.77,0,0,0-1.36-2.17A7,7,0,0,0,12.25,2,17.53,17.53,0,0,0,4.07,6.09,5,5,0,0,0,2.38,8.62a3.11,3.11,0,0,0,1.14,3.26c.79.71,1.64,1.35,2.46,2,.33.27.65.57,1,.89l1.69-.92c.29-.16.59-.3.86-.47a7.38,7.38,0,0,0,.62-.5l1.57-1.28.09,0a1.36,1.36,0,0,1,1.34,0c.44.3.43.8.43,1.27,0,.12,0,.25,0,.41l.2-.06c.58-.13.88.18.74.76-.23.93-.47,1.86-.69,2.79a4.56,4.56,0,0,0-.05.75l.1,0a6.26,6.26,0,0,0,.33-.59q1.22-2.7,2.42-5.41c.1-.23.11-.51.22-.74s.22-.34.36-.36a4.73,4.73,0,0,1,1.14-.09c.38,0,.49.22.35.57a3.61,3.61,0,0,0-.21,2.2c.08.32.22.63.37,1a18.26,18.26,0,0,0,1.9-3.85c.07-.26.19-.63.39-.72a1.76,1.76,0,0,1,1.46-.06.45.45,0,0,1,.14.39c-.07.39-.22.76-.28,1.15a3.52,3.52,0,0,0,.66,2.5c.17-.07.32-.14.49-.2a5.47,5.47,0,0,1,5,.36,2.85,2.85,0,0,1,1.36,3.06,1.94,1.94,0,0,1-1.3,1.32c-.09,0-.2,0-.31-.05a1.3,1.3,0,0,1,.16-.24,4.92,4.92,0,0,0,.61-.57A1.68,1.68,0,0,0,28.7,15a3.55,3.55,0,0,0-2-1,5.8,5.8,0,0,0-3.23.28c0,.13.09.25.13.37a2,2,0,0,1-.52,2.16,4.15,4.15,0,0,1-1.84,1.05c-.7.2-1.12-.16-1.06-.89A3.23,3.23,0,0,1,21,15.21c.22-.27.49-.5.72-.76a.35.35,0,0,0,.08-.28c-.25-.68-.52-1.36-.79-2.05-.15.27-.32.6-.5.91-.34.57-.68,1.14-1,1.71a.51.51,0,0,0-.07.54,2.29,2.29,0,0,1-.15,2.37,3.36,3.36,0,0,1-3.07,1.27c-.44,0-.61-.45-.34-.84s.63-.81,1-1.21.66-.82,1-1.24a.42.42,0,0,0,.08-.34c-.29-.75-.59-1.49-.89-2.22-.13.3-.27.66-.44,1-.7,1.42-1.4,2.85-2.13,4.26a3,3,0,0,1-.61.76.75.75,0,0,1-1.34-.42,7,7,0,0,1-.1-.94c0-.11,0-.23,0-.45-.3.61-.55,1.15-.82,1.66a1.23,1.23,0,0,1-1.18.83,1,1,0,0,1-.85-.47A4.47,4.47,0,0,1,8.88,16c.07-.41.16-.82.26-1.3l-1.53.88c.09.45.2.86.26,1.27a5,5,0,0,1-3.48,5.49l-.6.16H2.53a1.68,1.68,0,0,1-1.25-.84,2.9,2.9,0,0,1,.22-3,5.9,5.9,0,0,1,1.85-1.75c.8-.52,1.63-1,2.46-1.51a3.13,3.13,0,0,0-.25-.21c-.69-.49-1.38-1-2.06-1.46C2,12.65.56,11.52,0,9.64Zm6.57,7.36a11.71,11.71,0,0,0-3.08,2.33,2.49,2.49,0,0,0-.64,1.52c0,.68.35,1,1,.84a3.61,3.61,0,0,0,2.39-1.86A3.4,3.4,0,0,0,6.57,16.08Zm3.74.56c.07.35.11.71.21,1.06s.25.29.42.06a2.36,2.36,0,0,0,.3-.51c.35-.87.71-1.73,1-2.61A14.64,14.64,0,0,0,12.74,13c.08-.35-.09-.48-.4-.3a2.47,2.47,0,0,0-.73.58A6,6,0,0,0,10.31,16.64Zm10.85.29a1.46,1.46,0,0,0,1.1-2A3.5,3.5,0,0,0,21.16,16.93ZM16.9,18a1.94,1.94,0,0,0,1.4-1.62Z"/><path class="cls-1" d="M21.16,16.93a3.5,3.5,0,0,1,1.1-2A1.46,1.46,0,0,1,21.16,16.93Z"/><path class="cls-1" d="M16.9,18l1.4-1.62A1.94,1.94,0,0,1,16.9,18Z"/></g></g></symbol><symbol id="security" viewBox="0 0 21.57 27.08"><title>security</title><g id="Layer_2" data-name="Layer 2"><g id="My_sites_tick_all_the_boxes" data-name="My sites tick all the boxes"><path d="M19.07,10.68H7.53V8.1a3.35,3.35,0,0,1,3.25-3.44A3.35,3.35,0,0,1,14,8.1a.85.85,0,0,0,.85.85h3a.85.85,0,0,0,.85-.85A8,8,0,0,0,10.78,0,8,8,0,0,0,2.88,8.1v2.58H2.5A2.54,2.54,0,0,0,0,13.24V24.51a2.54,2.54,0,0,0,2.5,2.56H19.07a2.54,2.54,0,0,0,2.5-2.57V13.24a2.54,2.54,0,0,0-2.5-2.57ZM4.57,8.1a6.32,6.32,0,0,1,6.21-6.4,6.29,6.29,0,0,1,6.16,5.56H15.66A5,5,0,0,0,10.78,3,5,5,0,0,0,5.84,8.1v2.58H4.57Zm15.3,16.42a.84.84,0,0,1-.81.87H2.5a.84.84,0,0,1-.81-.87V13.24a.84.84,0,0,1,.81-.87H19.07a.84.84,0,0,1,.81.87Zm0,0"/><path d="M13.28,17.14A2.5,2.5,0,1,0,9.08,19l-.6,2.68a.86.86,0,0,0,0,.18c0,.73.72,1.29,1.67,1.29h1.31c1,0,1.67-.55,1.67-1.29a.84.84,0,0,0,0-.18L12.49,19a2.49,2.49,0,0,0,.79-1.82Zm-3,4.29.52-2.34.52,2.34Zm.89-3.57a.84.84,0,0,0-.37.38.84.84,0,0,0-.37-.38.8.8,0,1,1,.74,0Zm0,0"/></g></g></symbol><symbol id="seo" viewBox="0 0 19.39 19.38"><title>seo</title><g id="Layer_2" data-name="Layer 2"><g id="My_sites_tick_all_the_boxes" data-name="My sites tick all the boxes"><path class="cls-1" d="M18.35,17.57H1.83V1A.79.79,0,0,0,.26,1V18.34a.79.79,0,0,0,.23.56.77.77,0,0,0,.52.23H18.35a.78.78,0,1,0,0-1.57Zm0,0"/><path class="cls-1" d="M4.4,15.32l4.34-3.62,5.54-.3a.79.79,0,0,0,.67-.45l2-4.26.42.93A.79.79,0,0,0,18.8,7L17.57,4.28a.79.79,0,0,0-1.06-.39L13.88,5.14a.79.79,0,1,0,.67,1.42l.89-.42L13.72,9.85l-5.33.29a.79.79,0,0,0-.46.18L3.38,14.11a.79.79,0,0,0-.1,1.11.8.8,0,0,0,1.11.1Zm0,0"/></g></g></symbol><symbol id="test2" viewBox="0 0 15.2 11.75"><title>test2</title><g id="Layer_2" data-name="Layer 2"><g id="About_me" data-name="About me"><path class="cls-1" d="M13.06.38H2.14A1.77,1.77,0,0,0,.38,2.14V9.61a1.77,1.77,0,0,0,1.77,1.77H13.06a1.77,1.77,0,0,0,1.77-1.77V2.15A1.77,1.77,0,0,0,13.06.38Zm1,9.23a1,1,0,0,1-1,1H2.14a1,1,0,0,1-1-1V2.15a1,1,0,0,1,1-1H13.06a1,1,0,0,1,1,1V9.61Zm0,0"/><path class="cls-1" d="M9.49,5.78,13,2.61a.4.4,0,1,0-.54-.6L7.61,6.39l-1-.85h0l-.07-.06L2.72,2a.4.4,0,1,0-.54.6l3.58,3.2L2.19,9.14a.41.41,0,0,0,0,.57.41.41,0,0,0,.3.13.4.4,0,0,0,.28-.11L6.36,6.35l1,.88a.4.4,0,0,0,.54,0l1-.9,3.59,3.41a.4.4,0,0,0,.57,0,.41.41,0,0,0,0-.57Z"/><path class="cls-1" d="M9.49,5.78"/></g></g></symbol><symbol id="tick" viewBox="0 0 12.95 11.76"><title>tick</title><g id="Layer_2" data-name="Layer 2"><g id="My_sites_tick_all_the_boxes" data-name="My sites tick all the boxes"><path d="M9.63,10H1.77V2.13H7.91L9.67.36H0v11.4H11.4V4.46L9.63,6.23Zm0,0"/><path d="M3.7,4.5,2.45,5.75l3,3,7.5-7.5L11.7,0,5.45,6.25Zm0,0"/></g></g></symbol><symbol id="wordpress" viewBox="0 0 23 21.88"><title>wordpress</title><g id="Layer_2" data-name="Layer 2"><g id="About_me" data-name="About me"><path class="cls-1" d="M11.66,11.69,8.94,19.21a9.52,9.52,0,0,0,5.57-.14L14.44,19Z"/><path class="cls-1" d="M2.44,10.94A8.6,8.6,0,0,0,7.54,18.7L3.22,7.43A8.23,8.23,0,0,0,2.44,10.94Z"/><path class="cls-1" d="M17.62,10.5a4.38,4.38,0,0,0-.75-2.38,3.94,3.94,0,0,1-.89-2A1.53,1.53,0,0,1,17.5,4.57h.12A9.29,9.29,0,0,0,11.5,2.32,9.18,9.18,0,0,0,3.93,6.2h.58c.95,0,2.42-.11,2.42-.11A.36.36,0,1,1,7,6.81s-.49.05-1,.08l3.3,9.34,2-5.66L9.82,6.9c-.49,0-1-.08-1-.08a.36.36,0,1,1,.06-.71s1.5.11,2.39.11,2.42-.11,2.42-.11a.36.36,0,1,1,.06.71s-.49.05-1,.08L16,16.16l.9-2.87A10,10,0,0,0,17.62,10.5Z"/><path class="cls-1" d="M19.45,6.8a6.2,6.2,0,0,1,.06.89,7.8,7.8,0,0,1-.69,3.09l-2.77,7.61a8.56,8.56,0,0,0,4.51-7.45A8.24,8.24,0,0,0,19.45,6.8Z"/><path class="cls-1" d="M11.5,0A11.23,11.23,0,0,0,0,10.94,11.23,11.23,0,0,0,11.5,21.88C17.85,21.88,23,17,23,10.94S17.85,0,11.5,0Zm0,20.53A9.86,9.86,0,0,1,1.42,10.94,9.86,9.86,0,0,1,11.5,1.35a9.86,9.86,0,0,1,10.08,9.59A9.86,9.86,0,0,1,11.5,20.53Z"/></g></g></symbol></svg>